<svg xmlns="http://www.w3.org/2000/svg" width="38" height="36.423" viewBox="0 0 38 36.423"><path d="M280.933,59.278a7.737,7.737,0,0,0-2.659,1.929A7.225,7.225,0,0,0,277.09,65.4a49.185,49.185,0,0,0,3.935,22,5.247,5.247,0,0,0,1.714,2.443,5.741,5.741,0,0,0,2.064.72,50.486,50.486,0,0,0,19.426.109,11.1,11.1,0,0,0,3.5-1.127,9.64,9.64,0,0,0,3.563-4.3c2.5-5.055,3.351-10.678,3.68-16.225a10.616,10.616,0,0,0-.239-3.694c-.84-2.791-3.659-4.558-6.33-5.983-3.756-2-8.465-4.208-12.923-4.206C290.585,55.138,285.19,57.109,280.933,59.278Z" transform="translate(-277.021 -55.136)" fill="#ffd62a"/></svg>