<svg xmlns="http://www.w3.org/2000/svg" width="38" height="38" viewBox="0 0 38 38"><g transform="translate(-813 -2621)"><circle cx="19" cy="19" r="19" transform="translate(813 2621)" fill="#161615"/><path d="M10.182,7.2A5.221,5.221,0,1,0,15.4,12.42,5.213,5.213,0,0,0,10.182,7.2Zm0,8.616a3.394,3.394,0,1,1,3.394-3.394,3.4,3.4,0,0,1-3.394,3.394Zm6.653-8.829a1.218,1.218,0,1,1-1.218-1.218A1.215,1.215,0,0,1,16.834,6.985Zm3.458,1.236a6.027,6.027,0,0,0-1.645-4.267A6.066,6.066,0,0,0,14.38,2.309c-1.681-.1-6.721-.1-8.4,0A6.058,6.058,0,0,0,1.711,3.95,6.046,6.046,0,0,0,.066,8.217c-.1,1.681-.1,6.721,0,8.4a6.027,6.027,0,0,0,1.645,4.267,6.074,6.074,0,0,0,4.267,1.645c1.681.1,6.721.1,8.4,0a6.027,6.027,0,0,0,4.267-1.645,6.066,6.066,0,0,0,1.645-4.267c.1-1.681.1-6.716,0-8.4Zm-2.172,10.2a3.437,3.437,0,0,1-1.936,1.936c-1.341.532-4.521.409-6,.409s-4.667.118-6-.409a3.437,3.437,0,0,1-1.936-1.936c-.532-1.341-.409-4.521-.409-6s-.118-4.667.409-6A3.437,3.437,0,0,1,4.179,4.481c1.341-.532,4.521-.409,6-.409s4.667-.118,6,.409A3.437,3.437,0,0,1,18.12,6.417c.532,1.341.409,4.521.409,6S18.652,17.087,18.12,18.423Z" transform="translate(822.178 2627.935)" fill="#fff"/></g></svg>