<svg xmlns="http://www.w3.org/2000/svg" xmlns:xlink="http://www.w3.org/1999/xlink" width="200" height="50" viewBox="0 0 200 50"><defs><clipPath id="b"><rect width="200" height="50"/></clipPath></defs><g id="a" clip-path="url(#b)"><path d="M11.539-11.468H22.622l11.96-45.347h-9.33l-7.89,32.974h-.125L10.224-56.815H.393ZM46.918-43.185H38.089v31.718h8.829ZM38.089-56.815v6.972h8.829v-6.972ZM51.176-37.721h3.569v19.533c0,1.947,1,7.034,8.641,7.034a36.073,36.073,0,0,0,4.571-.314v-5.464a6.086,6.086,0,0,1-1.565.126c-2.88,0-2.818-1.57-2.818-3.957V-37.721h4.571v-5.464H63.574v-8.981L54.745-48.21v5.025H51.176ZM87.493-26.793c0,3.454.814,10.489-4.383,10.489-2.88,0-3.256-2.764-3.256-5.025C79.854-26.981,83.11-26.6,87.493-26.793ZM96.134-33.2c0-5.778-1.44-10.614-12.649-10.614-3.381,0-6.262.565-8.265,2.073-2.066,1.445-3.256,3.894-3.256,7.725h8.641c0-2.512.25-4.836,3.319-4.836,3.193,0,3.569,1.947,3.569,4.648v2.449c-8.2-.126-16.28.314-16.28,10.8,0,5.527,2.254,10.112,8.391,10.112a8.758,8.758,0,0,0,8.265-4.836h.125l.376,4.208h8.2c-.188-1.947-.438-3.957-.438-5.9Zm17.345,1.884h5.51c4.759,0,6.262,2.449,6.262,6.469,0,6.344-4.508,6.406-6.512,6.406h-5.26Zm0-18.528H119.3c3.193,0,5.448,2.449,5.448,5.778,0,4.4-2.88,5.778-4.947,5.778h-6.324Zm7.264,38.375c4.007,0,13.964-.5,13.964-12,0-6.218-1.753-10.552-8.453-11.494v-.126c5.135-1,7.7-4.773,7.7-9.986,0-9.672-5.949-11.745-13.149-11.745H104.024v45.347Zm29.117-19.408c0-2.7-.063-7.474,4.007-7.474,4.2,0,4.07,4.4,4.07,7.474Zm16.906,4.962c.313-10.175-1-17.9-12.9-17.9-11.647,0-12.9,7.411-12.9,16.079,0,9.924,1.5,16.9,12.9,16.9,4.133,0,7.264-1.131,9.33-3.078a11.3,11.3,0,0,0,3.381-8.228h-8.954c0,2.638-.626,5.653-3.757,5.653-3.882,0-4.007-5.653-4.007-9.421Zm14.4-4.962c0-2.7-.063-7.474,4.007-7.474,4.2,0,4.07,4.4,4.07,7.474Zm16.906,4.962c.313-10.175-1-17.9-12.9-17.9-11.647,0-12.9,7.411-12.9,16.079,0,9.924,1.5,16.9,12.9,16.9,4.133,0,7.264-1.131,9.33-3.078a11.3,11.3,0,0,0,3.381-8.228h-8.954c0,2.638-.626,5.653-3.757,5.653-3.882,0-4.007-5.653-4.007-9.421Z" transform="translate(0.607 58.815)" fill="#fff"/></g></svg>