<svg xmlns="http://www.w3.org/2000/svg" xmlns:xlink="http://www.w3.org/1999/xlink" width="1366" height="114" viewBox="0 0 1366 114"><defs><clipPath id="b"><rect width="1366" height="114"/></clipPath></defs><g id="a" clip-path="url(#b)"><path d="M1366,755.309H0V646c5.7.745,30.585,3.809,68.852,7.955,51.4,5.569,104.848,10.722,158.869,15.316,74.1,6.3,146.754,11.313,215.944,14.9,85.779,4.442,166.552,6.694,240.074,6.694,74.356,0,156.012-2.311,242.7-6.869,69.631-3.661,142.7-8.774,217.163-15.2,132.14-11.4,221.535-22.827,222.4-22.939V755.308Z" transform="translate(0 -638.859)" fill="#ffdf00"/><path d="M1366,755.808H-.5V645.429l.565.074c5.741.75,30.711,3.822,68.841,7.954,51.394,5.569,104.841,10.721,158.858,15.315,74.092,6.3,146.741,11.312,215.927,14.894,85.771,4.442,166.535,6.694,240.048,6.694,74.349,0,156-2.311,242.672-6.868,69.629-3.661,142.688-8.774,217.147-15.2,132.019-11.388,221.512-22.824,222.379-22.937l.564-.073V755.308h-.5Zm-1365.5-1h1365V646.422c-7.818.991-95.306,11.953-221.857,22.869-74.47,6.424-147.54,11.538-217.18,15.2-86.694,4.558-168.358,6.869-242.724,6.869-73.531,0-154.312-2.253-240.1-6.7-69.2-3.583-141.857-8.6-215.96-14.9-54.024-4.594-107.48-9.747-158.881-15.317-37-4.009-61.618-7.022-68.3-7.883Z" transform="translate(0 -638.859)" fill="rgba(0,0,0,0)"/></g></svg>