<svg xmlns="http://www.w3.org/2000/svg" xmlns:xlink="http://www.w3.org/1999/xlink" width="60" height="60" viewBox="0 0 60 60"><defs><clipPath id="b"><rect width="60" height="60"/></clipPath></defs><g id="a" clip-path="url(#b)"><g transform="translate(3 1)"><path d="M-285.009,334.107a22.08,22.08,0,0,0-2.2.237c-.72.093-1.44.183-2.157.293s-1.453.227-2.17.382a5.461,5.461,0,0,0-1.919.814c-.616.411-1.23.831-1.811,1.291a3.335,3.335,0,0,0-2.577-.634c-.111.016-.222.038-.332.064a24.425,24.425,0,0,1,3.308-4.145c.191-.18.387-.357.591-.523a3.747,3.747,0,0,1,.777-.44,8.53,8.53,0,0,1,1.548-.512.284.284,0,0,0,.1.122,2.766,2.766,0,0,0,2.93.109c.4-.233.812-.849.285-1.2a1,1,0,0,0-.686-.1c-.332.041-.663.1-.992.168q-1.016.194-2.012.478c-.318.09-.635.185-.944.3a2.346,2.346,0,0,0-.814.446c-.227.214-.492.389-.724.6s-.448.422-.661.643a15.731,15.731,0,0,0-1.181,1.378,33.124,33.124,0,0,0-1.879,2.776h0a3.346,3.346,0,0,0-.621.1,2.089,2.089,0,0,0-1.228.6,4.693,4.693,0,0,0-.99,1.926,5.624,5.624,0,0,0-.315,1.668c-.311-.13-.638-.233-.947-.336a11.421,11.421,0,0,0-1.6-.411,6.706,6.706,0,0,0-3.229.131.256.256,0,0,0-.173.171,3.974,3.974,0,0,0-.366.228,5.887,5.887,0,0,0-2.112.648,7.888,7.888,0,0,0-1.407.9.264.264,0,0,0-.205.021,6.413,6.413,0,0,0-2.3,3.127,43.247,43.247,0,0,0-12.067,2.121,62.645,62.645,0,0,0-6.127,2.285,25.88,25.88,0,0,0-5.359,2.963,14.71,14.71,0,0,0-1.146.953,3.3,3.3,0,0,0-.888,1.07c-.362.868.281,1.9.793,2.572a7.844,7.844,0,0,0,4.84,2.695,19.566,19.566,0,0,0,3.018.326,8.088,8.088,0,0,0,3.176-.531,21.851,21.851,0,0,0,2.03-.9q-.681.59-1.358,1.184c-1.175,1.035-2.385,2.05-3.479,3.172a9.147,9.147,0,0,0-2.314,3.554,2.376,2.376,0,0,0,.174,2.167,3.824,3.824,0,0,0,1.827,1.254,9.554,9.554,0,0,0,4.457.413,10.156,10.156,0,0,0,4.389-1.279,4.967,4.967,0,0,0,.719-.571l.046-.008a.463.463,0,0,0,.192.062,1.444,1.444,0,0,0,.5-.07,5.272,5.272,0,0,0-.034.96,9.675,9.675,0,0,0,.141,1.4,9.381,9.381,0,0,0,.912,2.678.242.242,0,0,0,.341.088A17.348,17.348,0,0,0-318,376.89a14.856,14.856,0,0,0,2.564,3.5,9.582,9.582,0,0,0,1.9,1.533.229.229,0,0,0,.027.01c.016.014.03.029.046.043.128.11.265.209.4.311a5.678,5.678,0,0,0,1.932,1.444,6.436,6.436,0,0,0,1.541.9.228.228,0,0,0,.292-.179,4.99,4.99,0,0,0,.475.163.251.251,0,0,0,.3-.155c.157.1.314.2.474.3a27.046,27.046,0,0,0,2.564,1.364q1.321.615,2.7,1.105a18.708,18.708,0,0,0,2.943.851,12.836,12.836,0,0,0,2.611.184,3.467,3.467,0,0,0,.418.047,2.18,2.18,0,0,0,.818-.147c.229-.075.3-.461.013-.52l-.168-.036a.268.268,0,0,0-.121-.026h0c-.329-.07-.658-.141-.987-.21a10.339,10.339,0,0,1-1.226-.287,1.653,1.653,0,0,1-.814-.587c-.023-.031-.04-.065-.061-.1l-.057-.107c-.047-.091-.089-.186-.134-.279-.057-.15-.1-.3-.153-.457a.146.146,0,0,0-.1-.091c-.058-.138-.117-.275-.169-.414a18.032,18.032,0,0,1-1.019-5.478c-.029-.612-.03-1.225-.026-1.838a.226.226,0,0,0,.084-.2c-.007-.114-.019-.227-.028-.34a.227.227,0,0,0,.3-.169,8.923,8.923,0,0,0-.042-3.244c-.056-.337-.133-.669-.22-1,.013-.18-.007-.372-.011-.524-.009-.321-.035-.642-.072-.961a10.162,10.162,0,0,0-.382-1.813,9.832,9.832,0,0,0-1.712-3.264,6.639,6.639,0,0,0-.525-.574.2.2,0,0,0-.013-.063l-.021-.041a.094.094,0,0,0,.137-.022c.141-.228.009-.551-.107-.762l-.031-.051.018-.07c.03-.679-.541-1.156-.973-1.607q-.331-.346-.675-.681c-.23-.224-.459-.463-.71-.665a1.733,1.733,0,0,0,.2-.18,3.84,3.84,0,0,0,.662-1,4.979,4.979,0,0,0,.43-2.361,4.336,4.336,0,0,0-.276-1.319,3.31,3.31,0,0,0-.369-.708c.1-.113.207-.227.306-.345-.038.12-.078.238-.115.358-.049.162.176.321.3.18.164-.193.333-.381.5-.572l-.152.374a.173.173,0,0,0,.283.173c.143-.17.287-.338.43-.508-.045.127-.093.253-.137.38-.063.178.2.352.326.2l.09-.109-.011.023c-.061.133.069.336.224.232a9.464,9.464,0,0,0,.819-.617l-.056.078c-.155.188.036.54.28.377a3.923,3.923,0,0,0,.679-.576l-.021.067c-.063.208.207.3.326.145a6.306,6.306,0,0,0,.492-.741.2.2,0,0,0,.354.066,6.054,6.054,0,0,0,.587-1.113c0,.064,0,.127,0,.191a.19.19,0,0,0,.37.06c.058-.14.11-.281.161-.424a.278.278,0,0,0,.073-.116l.105-.335c0,.12-.006.241-.009.361a.213.213,0,0,0,.414.067c.02-.053.037-.107.055-.161l.042.039a9.174,9.174,0,0,0,1.527.834c.224.083.456.143.686.21.051.015.1.033.151.048l.024.034a.247.247,0,0,0,.2.141c.029.145.066.29.105.434a9.4,9.4,0,0,0,.307.914q.174.451.381.889a1.1,1.1,0,0,0,.309.467c.007.081.014.163.025.243.028.2.062.393.1.588q.128.606.306,1.2a.244.244,0,0,0,.286.174.515.515,0,0,0,.406-.483,1.816,1.816,0,0,0-.124-.622,11.122,11.122,0,0,0-.489-1.347.186.186,0,0,0-.09-.088,19.114,19.114,0,0,0-1.01-2.692.222.222,0,0,0-.243-.135,1.885,1.885,0,0,0-.5-.483c-.206-.162-.413-.322-.626-.473a5.887,5.887,0,0,0-1.23-.678c.006-.045.014-.09.019-.135a.258.258,0,0,0,.358-.237v-.007a.249.249,0,0,0,.253-.318c-.018-.065-.032-.13-.048-.2a.242.242,0,0,0,.259-.245.264.264,0,0,0,.135-.166l.065-.068a5.185,5.185,0,0,0,.34-.61.167.167,0,0,0,.183-.086.767.767,0,0,0,.079-.416c.473-.03.947-.05,1.421-.042a5.749,5.749,0,0,0,1.5-.025c.069.069.147.131.221.2l.023.022c.062.106.128.21.193.314.155.25.323.492.493.732s.319.452.481.676c.089.161.178.322.269.481a.643.643,0,0,0,.649.4,1.38,1.38,0,0,0,.3.3c.13.114.261.224.4.333.281.227.562.453.847.676a.261.261,0,0,0,.393-.213,1.057,1.057,0,0,0-.286-.674c-.127-.159-.26-.314-.4-.463a3.217,3.217,0,0,0-.46-.412,1.807,1.807,0,0,0-.244-.151c-.048-.024-.1-.046-.147-.067l0-.01,0-.008a.267.267,0,0,0-.286-.125.237.237,0,0,0-.091.034c-.246-.453-.522-.892-.786-1.332-.171-.286-.35-.567-.525-.85-.163-.264-.348-.713-.732-.534l-.066.05a3.678,3.678,0,0,0-1.581-.2,9.188,9.188,0,0,0-1.628.21l-.006-.058c-.039-.23-.094-.463-.158-.7l.083.118a.175.175,0,0,0,.322-.126.938.938,0,0,0-.035-.119.179.179,0,0,0,.12-.3l-.932-1.141a10.845,10.845,0,0,0,1.84.86,3.051,3.051,0,0,0,3.359-.527,3.327,3.327,0,0,0,.43-2.838c-.016-.124-.036-.248-.06-.37a5.919,5.919,0,0,0-.148-.578,18.139,18.139,0,0,0-1.111-3.266,17.768,17.768,0,0,0-.941-1.793,9.387,9.387,0,0,0-1.144-1.624c-.036-.038-.075-.069-.112-.1.536-.31,1.05-.655,1.567-1a7.6,7.6,0,0,1,.873-.519,4.333,4.333,0,0,1,1-.307c1.132-.237,2.287-.411,3.438-.551a.327.327,0,0,0,.052.115,2.147,2.147,0,0,0,2.008.782c.711-.1,1.58-.7,1.364-1.522A.281.281,0,0,0-285.009,334.107Zm-26.633,15.025c1.057-.618,2.145-1.184,3.246-1.723.417-.1.835-.2,1.256-.284a2.053,2.053,0,0,1,1.149-.022.4.4,0,0,1,.236.2,40.008,40.008,0,0,0-3.4,2.223c-.2.149-.4.307-.6.463-.133.073-.264.153-.4.227-.146.046-.291.095-.433.136q-.532.156-1.068.3c-.7.185-1.412.341-2.124.487a13.427,13.427,0,0,0-1.652.4C-314.191,350.7-312.934,349.888-311.642,349.132Zm-5.808,3.208c-1.571,1.115-3.1,2.3-4.591,3.511.263-.488.489-1,.743-1.488a11.816,11.816,0,0,1,1.4-2.3,8.944,8.944,0,0,1,2.208-1.774,15.643,15.643,0,0,1,1.9-.965c-.105.111-.207.224-.305.342A6.838,6.838,0,0,0-317.45,352.34Zm.269-.216c0,.009,0,.017,0,.026l-.016.011C-317.19,352.148-317.186,352.136-317.181,352.124Zm.806-1.087a1.714,1.714,0,0,1,.48-.762.132.132,0,0,0-.012-.183c.069-.081.138-.162.209-.24a7.351,7.351,0,0,1,1.167-1.032c.233-.087.468-.171.7-.256-.01.086-.024.171-.032.257-.013.158.14.2.251.148q-.054.3-.094.607a.178.178,0,0,0,.184.184q-.867.525-1.716,1.075-.617.4-1.222.815A3.436,3.436,0,0,1-316.375,351.037Zm-4.7-4.333a49.362,49.362,0,0,1,6.321-.917c.247-.021.5-.031.743-.047a.287.287,0,0,0,.236.125,7.82,7.82,0,0,0-.319,1.148c-1.1.194-2.2.39-3.3.6a12.244,12.244,0,0,1-1.72.081c-1.013-.029-2.021-.112-3.036-.1a25.887,25.887,0,0,0-3.029.229c-.069.009-.138.022-.207.031C-323.965,347.409-322.527,347.018-321.072,346.7Zm-11.965,4.072c1.856-.858,3.766-1.613,5.7-2.283a25.624,25.624,0,0,1,4.947-.495c.745,0,1.487.05,2.23.094q-1.965.4-3.887.986-1.251.381-2.478.834c-.465.171-.93.348-1.384.549-1.131.388-2.247.817-3.354,1.27q-1.422.415-2.876.734a12.487,12.487,0,0,0-3.879,1.371A20.931,20.931,0,0,1-333.037,350.775Zm-5.016,6.612a5,5,0,0,1-.879-1.227,1.294,1.294,0,0,1-.106-1.3,2.228,2.228,0,0,1,.2-.274,6.815,6.815,0,0,1,1.851-1.071,13.615,13.615,0,0,1,2.5-.632c.276-.052.553-.1.829-.148-.422.184-.842.375-1.254.577a5.5,5.5,0,0,0-2.09,1.6A7.573,7.573,0,0,0-338.053,357.387Zm1.005.835c-.018-.385-.04-.77-.063-1.156.043-.158.087-.317.132-.475.1-.345.19-.691.281-1.037a5.642,5.642,0,0,1,.311-.61,5.288,5.288,0,0,1,1.539-1.235c.821-.459,1.7-.823,2.561-1.2l.154-.066c.093-.02.186-.039.278-.061.616-.149,1.223-.332,1.825-.531a5.129,5.129,0,0,0-.44.5,12.68,12.68,0,0,0-1.186,2.01,35.62,35.62,0,0,0-2.176,5.126A8.9,8.9,0,0,1-337.047,358.222Zm8.714,1.316c-.174.052-.35.1-.527.142a8.517,8.517,0,0,1-2.6.125.252.252,0,0,0-.061-.176,1.835,1.835,0,0,1-.574-1.083,10.967,10.967,0,0,1,.407-2.541,11.71,11.71,0,0,1,1.012-2.449c.039-.069.08-.135.12-.2.09-.152.185-.3.284-.447a5.222,5.222,0,0,1,1.4-1.457c.844-.309,1.679-.64,2.516-.968-.09.057-.179.116-.265.179a2.829,2.829,0,0,0-1.04,1.53,9.657,9.657,0,0,0-.28,2.012c-.064.844-.137,1.686-.209,2.529C-328.236,357.663-328.316,358.6-328.333,359.538Zm1.9-1.371a2.067,2.067,0,0,1-.078.447l-.025.031a.17.17,0,0,0-.012.138l-.015.073c-.439.2-.882.384-1.335.542.052-1.561.015-3.124.137-4.682.023-.292.039-.6.062-.919a13.443,13.443,0,0,0,.674,2.189,14.265,14.265,0,0,1,.488,1.442A2.669,2.669,0,0,1-326.431,358.167Zm-.2-2.281c-.32-.8-.582-1.623-.856-2.438-.026-.141-.049-.284-.065-.428a.1.1,0,0,0-.049-.074,3.118,3.118,0,0,1,.991-2.028c.374-.307.81-.527,1.2-.8.355-.134.712-.265,1.072-.387q1.272-.433,2.575-.762c.87-.221,1.752-.439,2.638-.581.571-.091,1.14-.191,1.71-.291a10.611,10.611,0,0,0,1.062-.145c.323-.062.645-.128.967-.195l1.207-.192c-.017.137-.033.273-.042.411a.24.24,0,0,0,0,.035l-.044.034a15.415,15.415,0,0,0-4.664,2.362,8.631,8.631,0,0,0-1.851,2.053,6.911,6.911,0,0,0-.586,1.189c-.15.393-.26.8-.421,1.19a7.683,7.683,0,0,1-.748,1.415q-.366.3-.731.6c-.367.305-.729.616-1.092.926l-.189.1c-.262.14-.527.272-.794.4l-.027-.063A11.391,11.391,0,0,1-326.634,355.886Zm-5.157,13.261a1.854,1.854,0,0,1-.656-.74,1.665,1.665,0,0,1-.013-1.054,8.02,8.02,0,0,1,2.12-3.49c1.022-1.076,2.167-2.039,3.276-3.022q1.816-1.609,3.665-3.179c1.437-1.215,2.9-2.4,4.394-3.544h0a4.23,4.23,0,0,0,1.552-.923,10.425,10.425,0,0,1,1.566-1.125,8.068,8.068,0,0,1,1.986-.608c.708-.158,1.408-.342,2.108-.534.27-.074.537-.155.8-.234-1.582.935-3.117,1.96-4.6,3.045-1.359.895-2.708,1.8-4.038,2.741a95.943,95.943,0,0,0-9.55,7.611c-.412.377-.838.741-1.22,1.15a4.316,4.316,0,0,0-.819,1.272,9.067,9.067,0,0,0-.561,2.645Zm1.435.325q0,.122,0,.244c0,.03,0,.061,0,.091v.014a5.806,5.806,0,0,1-.911-.364l.005-.019a10.813,10.813,0,0,1,.432-2.578,5.793,5.793,0,0,1,1.615-2.272c1.428-1.386,2.963-2.672,4.509-3.924q1.514-1.225,3.07-2.392-.17.176-.335.355c-.38.414-.74.849-1.087,1.294-.153.163-.308.324-.458.489-.345.381-.684.771-.991,1.182-.144.194-.274.4-.426.585a3.346,3.346,0,0,0-.3.435c-.089.086-.177.173-.267.26-.264.253-.52.515-.783.769q-.777.748-1.593,1.454a9.436,9.436,0,0,0-1.381,1.371,5.393,5.393,0,0,0-.829,1.525,5.245,5.245,0,0,0-.227.993A4.7,4.7,0,0,0-330.356,369.472Zm4.436-1.342c.012.335.031.67.042,1.006.01.286,0,.578.028.864a10.646,10.646,0,0,1-3.9-.018c.006-.126-.01-.26-.012-.37a5.135,5.135,0,0,1,.057-.881,5.109,5.109,0,0,1,.567-1.689,5.264,5.264,0,0,1,1.245-1.432c.562-.482,1.116-.973,1.65-1.487q.326-.314.645-.637a9.774,9.774,0,0,0-.336,2.632Q-325.957,367.125-325.921,368.13Zm4.131-2.511c.038.886.076,1.775.156,2.659a4.8,4.8,0,0,1-1.663,1.08.224.224,0,0,0-.186-.083,1.623,1.623,0,0,1-1.284-.431,2.281,2.281,0,0,1-.53-1.716c-.014-1.26.019-2.526.118-3.782.008-.023.013-.047.021-.069.015-.041.033-.081.05-.121.735-.888,1.385-1.842,2.113-2.737a20.875,20.875,0,0,1,1.5-1.646,2.989,2.989,0,0,0-.386,1.295,25.562,25.562,0,0,0-.009,2.567Q-321.856,364.127-321.79,365.619Zm.912,1.566a1.68,1.68,0,0,1-.129-.306,1.594,1.594,0,0,1-.086-.358.118.118,0,0,0-.041-.08c-.051-.316-.1-.632-.121-.95l-.029-.062c-.043-.664-.081-1.328-.1-1.995q-.038-1.3-.056-2.593c-.006-.375-.037-.754-.012-1.129a1.947,1.947,0,0,1,.374-1.031,9.9,9.9,0,0,1,1.68-1.614q.917-.79,1.862-1.547,1.1-.879,2.239-1.706l.337-.223q1.41-.922,2.838-1.818.288-.181.579-.359c-.424.348-.844.7-1.255,1.066a11.419,11.419,0,0,0-2.731,3.324,11.547,11.547,0,0,0-1.147,3.9,16.749,16.749,0,0,0,0,3.446,6.864,6.864,0,0,1-.789,2.613,6.87,6.87,0,0,1-.954,1.337.181.181,0,0,0-.082.058l-.044.054c-.046.058-.1.114-.145.17s-.126.121-.19.179c-.021.011-.042.021-.062.034-.186.1-.375.186-.567.265-.068.029-.139.053-.208.079a1.265,1.265,0,0,1-.271-.044,1.555,1.555,0,0,1-.518-.263A1.311,1.311,0,0,1-320.878,367.185Zm19.872,18.595c-.066-.216-.129-.434-.181-.655q.117.28.243.555A.207.207,0,0,0-301.005,385.779Zm-.256-3.443c.057.393.134.782.222,1.169a.179.179,0,0,0-.273.193c.057.214.106.431.158.646q-.121-.281-.24-.564a.153.153,0,0,0-.285.069,10.589,10.589,0,0,0,.248,1.656c-.25-.327-.483-.667-.712-1.009a.149.149,0,0,0-.26.145c.191.4.377.795.564,1.193l-.072-.062a.14.14,0,0,0-.165-.013c-.275-.2-.542-.414-.8-.636-.12-.1-.348.026-.243.18.274.4.541.81.834,1.2a9.473,9.473,0,0,1-2.2-1.073c-.133-.059-.223.134-.138.226.11.119.226.231.344.339a30.824,30.824,0,0,1-3.146-1.53c-.207-.116-.41-.238-.616-.357a.3.3,0,0,0-.018-.195c-.051-.114-.107-.225-.165-.335a3.348,3.348,0,0,0,.567.144.291.291,0,0,0,.29-.358c-.029-.113-.063-.225-.1-.336a1.024,1.024,0,0,0,.886.139c.365-.155.393-.541.314-.881-.02-.083-.041-.165-.061-.248a4.953,4.953,0,0,0,.709.475.3.3,0,0,0,.446-.326q-.048-.227-.094-.454c.026.024.049.051.075.074a.323.323,0,0,0,.5-.056,1.488,1.488,0,0,0,.163-1.018l0-.031.192.323a.321.321,0,0,0,.6-.145l.073-.67q.1.163.2.32a.322.322,0,0,0,.55.01,1.882,1.882,0,0,0,.181-.741.314.314,0,0,0,.271.186.319.319,0,0,0,.314-.227c.041-.231.072-.462.1-.693a.312.312,0,0,0,.476-.245c.01-.109.014-.218.021-.327a.329.329,0,0,0,.124-.035A19.423,19.423,0,0,0-301.262,382.336Zm-3.314-15.086c.17.083.443-.048.367-.269l-.028-.072c.046.021.088.047.135.065a.248.248,0,0,0,.314-.235c.031.009.061.02.094.027a.277.277,0,0,0,.252-.084,11.728,11.728,0,0,1,.689,1.167,10.7,10.7,0,0,1,.955,2.617c-.109-.246-.226-.488-.353-.725a.251.251,0,0,0-.462.181,11.045,11.045,0,0,1,.277,1.289c-.076-.159-.152-.318-.23-.475a2.631,2.631,0,0,0-.8-.986c-.109-.077-.232.086-.143.179a3.1,3.1,0,0,1,.542,1.073c.141.359.268.723.389,1.089a2.326,2.326,0,0,0-.57-.831c-.161-.14-.391.072-.242.234a1.977,1.977,0,0,1,.289.811c.025.083.051.166.077.249l-.061.059a1.26,1.26,0,0,0-.181.491c-.179-.4-.386-.778-.6-1.163-.076-.138-.323-.052-.266.1.128.353.252.71.368,1.07a.284.284,0,0,0-.179.017c-.01,0-.018.012-.028.017a5.94,5.94,0,0,0-.452-.7c-.152-.2-.449.012-.4.223q.183.881.309,1.767a.283.283,0,0,0-.128.224l-.083-.033a7.206,7.206,0,0,1-.332-.786c-.078-.226-.456-.3-.517-.013-.105.488-.193.978-.272,1.471-.06-.134-.118-.27-.184-.4-.152-.3-.507-.521-.8-.241a1.832,1.832,0,0,0-.325,1.078c-.021.152-.035.3-.05.457-.094-.181-.19-.361-.3-.532a.451.451,0,0,0-.381-.246c-.208.008-.33.184-.428.345a4.219,4.219,0,0,0-.515,1.813h-.008q-.257-.362-.514-.725c-.106-.151-.211-.38-.391-.458a.381.381,0,0,0-.417.1.581.581,0,0,0-.131.469c.02.237.065.475.1.71.043.282.091.563.137.844a8.111,8.111,0,0,1-.727-.921.205.205,0,0,0-.377.148,6.014,6.014,0,0,0,.344,1.241l-.027,0a4.1,4.1,0,0,1-.334-.359l-.834-.905c-.157-.17-.378.006-.358.2a9.845,9.845,0,0,0,.281,1.527c-.086-.107-.164-.221-.243-.323a4.489,4.489,0,0,0-.78-.765.17.17,0,0,0-.257.14,2.178,2.178,0,0,0,.2.757.219.219,0,0,0,.053.155l.035.042c.077.165.156.328.225.5-.061-.059-.123-.115-.182-.175a.244.244,0,0,0-.134-.07c-.19-.185-.378-.37-.563-.56-.085-.087-.277-.035-.266.1a1.946,1.946,0,0,0,.046.276q-.19-.18-.367-.375a13.292,13.292,0,0,1-1-1.3c-.069-.191-.142-.381-.226-.568s-.16-.358-.256-.528a1.3,1.3,0,0,0-.329-.451.1.1,0,0,0-.158.086,1.459,1.459,0,0,0,.186.533c.044.1.093.191.141.286a.181.181,0,0,0-.057.208,9.135,9.135,0,0,0,1.312,2.155,5.288,5.288,0,0,0,.911.851c.074.055.153.1.23.153l.012.033a11.342,11.342,0,0,1-1.2-.851.207.207,0,0,0-.192-.036,12.152,12.152,0,0,1-1.228-1.96c-.054-.109-.247-.039-.2.08a10.049,10.049,0,0,0,.714,1.53q-.329-.371-.632-.765a18.722,18.722,0,0,1-2.133-3.664c-.147-.324-.289-.652-.429-.98a.175.175,0,0,0,.136-.022.478.478,0,0,0,.1-.094,1.043,1.043,0,0,0,.225.248c.135.105.31-.032.322-.174a2.914,2.914,0,0,0-.159-1.027,4.18,4.18,0,0,0,.513.783.441.441,0,0,0,.341.143,1.322,1.322,0,0,0,.146.129.735.735,0,0,0,.553.127.271.271,0,0,0,.171-.392c-.094-.169-.2-.329-.3-.5l-.006-.013a.276.276,0,0,0,.13-.15c.06.1.12.206.181.309a.9.9,0,0,0,.28.355.341.341,0,0,0,.472-.134,1.119,1.119,0,0,0-.1-.938c-.037-.086-.078-.17-.119-.255a.779.779,0,0,0,.373-.587l.006,0a4.556,4.556,0,0,0,.351.618.2.2,0,0,0,.247.087.2.2,0,0,0,.122-.231v-.006l.07.007a.33.33,0,0,0,.206-.09.213.213,0,0,0,.041-.265.18.18,0,0,0-.072-.063.311.311,0,0,0,.113-.091c.081.066.164.128.251.187a.187.187,0,0,0,.282-.153v-.028l.013.008c.127.07.337-.006.324-.176v-.008a.328.328,0,0,0,.35.046c.47-.184.35-.784.271-1.161-.013-.062-.026-.124-.039-.186.12.177.238.355.362.53a.3.3,0,0,0,.531-.035l.022,0a.347.347,0,0,0,.357-.286l.066.06c.14.115.411.067.4-.156l-.005-.051a.311.311,0,0,0,.369-.026.225.225,0,0,0,.327-.128,1.865,1.865,0,0,0,.074-.321.734.734,0,0,0,.564.155.594.594,0,0,0,.131-.04,1.369,1.369,0,0,0,.151.081c.21.086.381-.135.36-.324a.468.468,0,0,0,.3-.1.491.491,0,0,0,.116-.121.991.991,0,0,0,.244.091.283.283,0,0,0,.351-.334c-.011-.06-.027-.119-.039-.179a.383.383,0,0,0,.146-.1l.212.271c.143.18.418.03.432-.167a4.232,4.232,0,0,0,.006-.455c.035.069.068.139.105.207a.561.561,0,0,0,.6.354.256.256,0,0,0,.193-.238,4,4,0,0,0-.077-.643,3.06,3.06,0,0,0,.046-.426.5.5,0,0,0,.124-.183.541.541,0,0,0,.05.039,1.777,1.777,0,0,0,.2.3c.152.189.392.433.645.249a.491.491,0,0,0,.115-.5.33.33,0,0,0,.239-.317.946.946,0,0,0,.183.061c.169.035.4-.107.324-.308l-.049-.134C-304.774,367.135-304.679,367.2-304.576,367.251Zm-10.654-2.6a5.115,5.115,0,0,0,.506-.523,3.917,3.917,0,0,0,.867-2.126.223.223,0,0,0,.033.012.233.233,0,0,0,.155-.025.243.243,0,0,0,.105-.126l.022-.015a.377.377,0,0,0,.042-.053,3.026,3.026,0,0,1,1.035-.291,8.5,8.5,0,0,0,.852-.02c.333.015.663.049.979.084,1.072.12,2.144.243,3.218.349a.215.215,0,0,0,.072.139c.07.063.133.133.2.2v.016l-.01-.008c-.1-.1-.2-.2-.3-.3a.116.116,0,0,0-.141-.018.253.253,0,0,0-.132.03.28.28,0,0,0-.108.378l.045.056,0,0c.026.035.05.072.075.108l-.021-.017a.276.276,0,0,0-.359-.028.271.271,0,0,0-.078.351l.051.079a.284.284,0,0,0-.329.333c.021.073.038.146.057.219-.023-.031-.047-.061-.068-.1a.259.259,0,0,0-.476.187c-.142-.041-.319.028-.3.2a1.161,1.161,0,0,0,.168.485l.01.032-.039-.042a.212.212,0,0,0-.351.1.152.152,0,0,0-.082.231l.008.011a.253.253,0,0,0-.169.319.266.266,0,0,0-.051.1c-.015-.029-.033-.056-.046-.086l-.006-.019-.015-.05c-.01-.045-.019-.089-.029-.133a.242.242,0,0,0-.289-.176.242.242,0,0,0-.131.093c-.031-.046-.065-.091-.1-.138a.215.215,0,0,0-.233-.1.213.213,0,0,0-.16.2c0,.127.007.254.01.381a.2.2,0,0,0-.036.188l.046.132c0,.046,0,.091.006.137-.023-.039-.047-.078-.069-.117a.249.249,0,0,0-.422.012.27.27,0,0,0-.339.119l-.047-.2a.255.255,0,0,0-.274-.19.259.259,0,0,0-.129.056c-.018-.027-.031-.057-.051-.083a.207.207,0,0,0-.2-.1.206.206,0,0,0-.174.142,4.156,4.156,0,0,0-.116.439l-.036.012a.25.25,0,0,0-.089.087c-.035-.049-.066-.1-.1-.147a.279.279,0,0,0-.456.087l-.054-.074a.219.219,0,0,0-.042-.038,12.83,12.83,0,0,1-.23-1.58.16.16,0,0,0-.319-.01,8.629,8.629,0,0,0,.053,1.787c-.039-.049-.077-.1-.119-.146a.267.267,0,0,0-.266-.074c-.057-.322-.109-.645-.161-.969a.155.155,0,0,0-.3.032c.007.282.031.564.065.844a.3.3,0,0,0-.23.094.315.315,0,0,0-.31-.083.78.78,0,0,0,.073-.331A.413.413,0,0,0-315.23,364.647Zm9.471-7.729c.036.173.075.345.108.518a5.969,5.969,0,0,1,.1,1.023,1.525,1.525,0,0,1-.62,1.444,4.483,4.483,0,0,1-1.6.5,10,10,0,0,1-2.027.159,7.809,7.809,0,0,1-1.085-.1l-.361-.062a2.954,2.954,0,0,1-1.822-1.7,11.87,11.87,0,0,1,.383-1.633,4.885,4.885,0,0,1,.717-1.556.08.08,0,0,0-.018-.111c.085-.148.176-.291.264-.436a.254.254,0,0,0,.144.01.892.892,0,0,0,.306-.134.316.316,0,0,0,.172-.118l.017-.025.01-.008v.01c-.025.175-.076.43.085.553.012.038.021.076.035.113a.219.219,0,0,0,.174.158.211.211,0,0,0,.216-.1c.016-.034.028-.069.043-.1l.065-.027a1.288,1.288,0,0,0,.4-.526.267.267,0,0,0,.108.079l.016,0-.017.074a.2.2,0,0,0,.153.249.237.237,0,0,0,.348.161.234.234,0,0,0,.328.015.225.225,0,0,0,.125.028c.014.061.023.122.041.182a.242.242,0,0,0,.461.019h.077a.251.251,0,0,0,.117-.023.246.246,0,0,0,.351.109.281.281,0,0,0,.51.068l.009-.017.038-.022.138-.105a.354.354,0,0,0,.239-.068l0,.015a.314.314,0,0,0,.2.2l-.042.133a.189.189,0,0,0,.31.189c.061-.062.124-.123.185-.185a.333.333,0,0,0,.276-.042.27.27,0,0,0,0,.2,5.528,5.528,0,0,0,.282.57A2.392,2.392,0,0,0-305.758,356.918Zm-1.486-7.769a19.958,19.958,0,0,0-3.323,3.269,21.287,21.287,0,0,0-2.525,3.919,14.394,14.394,0,0,0-.923,2.274,10.14,10.14,0,0,0-.345,2.444A4.677,4.677,0,0,1-315,363.5a5.358,5.358,0,0,1-.844.953c-.175-.8-.329-1.605-.43-2.418a13.534,13.534,0,0,1-.079-1.529c0-.253-.007-.506-.011-.759,0-.109,0-.216,0-.324a10.9,10.9,0,0,1,.892-3.133,8.963,8.963,0,0,1,1.023-1.693,11.224,11.224,0,0,1,1.557-1.584c.574-.5,1.147-.995,1.739-1.471s1.222-.929,1.857-1.369c1.036-.716,2.1-1.39,3.177-2.032-.136.167-.282.325-.418.491C-306.778,348.8-307.015,348.972-307.244,349.149Zm4.215,6.691c.071-.165.151-.325.234-.484a.778.778,0,0,0,.287-.159l.061.046A7.2,7.2,0,0,1-303.029,355.84Zm4.854-8.5a.549.549,0,0,0-.134.026.228.228,0,0,0-.144.329l.03.042a.2.2,0,0,0-.184.091.134.134,0,0,0-.26.065l0,.02a.188.188,0,0,0-.162.229c.069.3.152.591.22.884-.014.192-.028.385-.048.577a3.6,3.6,0,0,0-.553-1.105c-.1-.141-.325-.025-.239.133a3.425,3.425,0,0,1,.319,1.214l.007.072c-.039.037-.076.075-.113.112-.005-.179-.011-.359-.016-.538-.007-.278-.437-.294-.434-.013,0,.033,0,.066,0,.1a1.367,1.367,0,0,0-.138-.288.116.116,0,0,0-.2.112,1.288,1.288,0,0,1,.1.542.233.233,0,0,0-.143.185l-.039.256a.178.178,0,0,0-.045.3l-.006.037a.3.3,0,0,0-.361.2c-.053.218-.116.433-.185.646.021-.117.045-.232.068-.344a.309.309,0,0,0-.254-.384,2.1,2.1,0,0,0-.09-1.073c-.061-.152-.3-.05-.264.1a2.009,2.009,0,0,1-.085,1c-.038.147-.085.292-.127.439-.164.205-.333.407-.51.6l0,0a7.27,7.27,0,0,0-.044-.932.3.3,0,0,0-.49-.142l-.8.951-.047-.023.022-.049a.187.187,0,0,0-.111-.244c.008-.122.015-.244.025-.366.019-.244-.269-.312-.43-.19-.182.138-.354.287-.522.44a.156.156,0,0,0-.078.048l-.064.084c-.042.04-.085.078-.126.118a.266.266,0,0,0-.131,0q.029-.293.057-.586a.2.2,0,0,0-.055-.165q.067-.182.132-.366c.063-.18-.226-.315-.309-.138l-.081.172a.28.28,0,0,0-.159-.084.259.259,0,0,0-.121-.1.385.385,0,0,0-.05-.319.28.28,0,0,0-.408-.08l-.038-.029c.034-.045.066-.09.1-.134a.221.221,0,0,0-.083-.345l.012-.011a.273.273,0,0,0-.059-.438c.6-.4,1.228-.876,1.192-1.612a.28.28,0,0,0-.09-.392,1.525,1.525,0,0,0-.814-.7,1.768,1.768,0,0,0-1.4-.034.239.239,0,0,0-.114.307c-.1.042-.2.089-.306.132.046-.036.1-.068.141-.105.208-.165,0-.52-.247-.449a.59.59,0,0,0-.284.184c-.111.082-.222.164-.335.243a.254.254,0,0,0-.12.02,1.26,1.26,0,0,0-.25.156.265.265,0,0,0-.3-.371h0l-.061.018c-.077.038-.15.083-.224.125l-.005-.013a2.29,2.29,0,0,0,.361-.541c.087-.193-.131-.413-.307-.246l-.046.044c.117-.163-.1-.386-.256-.231l-.157.156a.306.306,0,0,0-.161-.11c.2-.27.4-.535.62-.788.141-.165-.083-.409-.239-.248-.247.256-.49.524-.723.8a.265.265,0,0,0-.2-.164,8.174,8.174,0,0,1,1.026-1.091c.155-.134-.066-.364-.221-.229-.258.224-.511.453-.752.692a.262.262,0,0,0-.3-.139,5.617,5.617,0,0,1,1.315-1.193.137.137,0,0,0-.133-.239,4.515,4.515,0,0,0-1.014.71l.018-.028c.115-.172-.149-.323-.27-.164l-.02.028-.038-.046q.176-.217.357-.428c.042-.018.083-.037.126-.054a.137.137,0,0,0,.079-.178c.045-.051.088-.1.134-.152.15-.165-.079-.409-.243-.252-.18.173-.36.342-.535.518a3.773,3.773,0,0,0-1.109.743c.162-.241.334-.476.515-.7a8.057,8.057,0,0,1,1.554-1.1c.151-.081.305-.153.461-.222a.24.24,0,0,0,.237.247,1.707,1.707,0,0,0,.719-.223l.09-.04a.191.191,0,0,0,.022.128.318.318,0,0,0-.055.168.21.21,0,0,0,.2.212.21.21,0,0,0,.221-.168l.028-.011a.93.93,0,0,0,.136-.08l.307-.179c.193-.113.383-.234.584-.332l.018-.013.015-.006a5.12,5.12,0,0,0-.755.764c-.1.13.057.261.181.248a.322.322,0,0,0,.259-.185l.012-.056c.131-.139.26-.282.395-.417.2-.2.409-.395.626-.579a.123.123,0,0,0,.042-.128.326.326,0,0,0,.069-.077.264.264,0,0,0,.022-.2l.028-.008a.138.138,0,0,0,.094-.109,7.231,7.231,0,0,1,1.684.139,15.214,15.214,0,0,1,1.491.392c.36.11.722.253,1.091.346a4.643,4.643,0,0,0,.669,1.761,15.1,15.1,0,0,0,.614,1.477,4.6,4.6,0,0,0,2.388,2.456A.276.276,0,0,0-298.176,347.339Zm-.026-3.556-.024,0c-.054-.032-.108-.066-.159-.1a8,8,0,0,1-.988-.755,4.007,4.007,0,0,1-.437-.448,2.925,2.925,0,0,1-.1-.343,3.3,3.3,0,0,1,.193-2.064,2.7,2.7,0,0,1,.326-.189,2.186,2.186,0,0,1,2.008.177,5.145,5.145,0,0,1,.969.688,1.9,1.9,0,0,1,.162,1.846A2.407,2.407,0,0,1-298.2,343.782Zm2.006.034a1.882,1.882,0,0,1-.843.342h-.116a2.64,2.64,0,0,0,1.471-.9A1.974,1.974,0,0,1-296.2,343.817Zm.747-1.436a2.725,2.725,0,0,1-1.641,1.515l-.033.009a2.761,2.761,0,0,0,.875-.661,2.171,2.171,0,0,0,.4-1.864c.053.075.1.151.149.228a.314.314,0,0,0,.039.113c.035.062.074.12.11.181A1.627,1.627,0,0,1-295.449,342.38Z" transform="translate(339.715 -329.843)" fill="#1d1d1b"/><path d="M-235.117,367.061a.177.177,0,0,0-.245,0l-.4.353-.2.174a1.179,1.179,0,0,0-.206.209.165.165,0,0,0,.022.2.169.169,0,0,0,.2.029,1.2,1.2,0,0,0,.223-.178l.2-.18.4-.355A.174.174,0,0,0-235.117,367.061Z" transform="translate(268.668 -355.348)" fill="#1d1d1b"/><path d="M-232.507,367.695c.077-.1-.086-.226-.169-.135-.151.164-.3.328-.451.495-.076.084-.141.178-.211.267a2.9,2.9,0,0,0-.2.275.09.09,0,0,0,.138.111,2.939,2.939,0,0,0,.242-.238c.075-.08.153-.158.222-.242C-232.789,368.05-232.648,367.872-232.507,367.695Z" transform="translate(266.858 -355.704)" fill="#1d1d1b"/><path d="M-222.843,392.643a.168.168,0,0,0-.138-.126.171.171,0,0,0-.172.078.781.781,0,0,0-.07.241q-.025.112-.056.222a4.154,4.154,0,0,1-.146.426.149.149,0,0,0,.083.178.148.148,0,0,0,.188-.058,4.634,4.634,0,0,0,.193-.452q.039-.108.072-.217A.7.7,0,0,0-222.843,392.643Z" transform="translate(259.918 -372.851)" fill="#1d1d1b"/><path d="M-221.221,393.054a.933.933,0,0,0-.121.352c-.024.119-.041.24-.061.36a.152.152,0,0,0,.012.108.142.142,0,0,0,.082.066.141.141,0,0,0,.173-.093c.024-.129.051-.258.071-.388.009-.06.018-.12.022-.18a.612.612,0,0,0-.015-.2A.09.09,0,0,0-221.221,393.054Z" transform="translate(258.528 -373.193)" fill="#1d1d1b"/><path d="M-230.591,368.868a2.249,2.249,0,0,1,.253-.158.144.144,0,0,0,.063-.179.143.143,0,0,0-.167-.088,2.122,2.122,0,0,0-.609.334,1.554,1.554,0,0,0-.234.218.5.5,0,0,0-.115.182l0,.007v0l-.018.04a.336.336,0,0,0-.028.119.128.128,0,0,0,.188.114l.074-.045.032-.03,0-.005h0a.639.639,0,0,0,.132-.119c.069-.074.135-.149.21-.217S-230.653,368.914-230.591,368.868Z" transform="translate(265.418 -356.328)" fill="#1d1d1b"/><path d="M-268.208,475.649c-.072-.152-.144-.3-.2-.462a1.818,1.818,0,0,0-.218-.542c-.108-.134-.3-.046-.352.086a.907.907,0,0,0,.091.632,5.17,5.17,0,0,0,.265.563c.093.176.183.358.291.526.072.112.3.457.45.237.1-.144-.028-.39-.088-.528C-268.047,475.988-268.127,475.819-268.208,475.649Z" transform="translate(291.195 -429.166)" fill="#1d1d1b"/></g></g></svg>