<svg xmlns="http://www.w3.org/2000/svg" xmlns:xlink="http://www.w3.org/1999/xlink" width="60" height="60" viewBox="0 0 60 60"><defs><clipPath id="b"><rect width="60" height="60"/></clipPath></defs><g id="a" clip-path="url(#b)"><path d="M700.131,425.048a1.68,1.68,0,0,0-.8-.781,2.547,2.547,0,0,0-1.169-.11,15.9,15.9,0,0,0-2.684.428,28.526,28.526,0,0,0-9.71,4.949,80.917,80.917,0,0,0-8.216,6.833c-.225.213-.447.429-.67.645.059-.128.107-.261.157-.394q.126-.339.231-.685a13,13,0,0,0,.328-1.441,4.851,4.851,0,0,1,.18-.731c.079-.226.191-.439.274-.663a3.488,3.488,0,0,0,.187-.8.227.227,0,0,0,.066-.133,1,1,0,0,1,.118-.334,1.372,1.372,0,0,1,.214-.136c.205-.112.413-.219.62-.329q.609-.324,1.221-.642c.414-.215.829-.431,1.258-.615a2.658,2.658,0,0,0,1.055-.587.256.256,0,0,0,.06-.129l.023-.031a1.332,1.332,0,0,0,.183-.819.206.206,0,0,0-.142-.189.2.2,0,0,0-.219.09,1.732,1.732,0,0,0-.321.77c-.763.327-1.518.678-2.256,1.058A12.871,12.871,0,0,0,678,431.513a.162.162,0,0,0-.094.075l-.033.026a.132.132,0,0,0-.042.126,21.052,21.052,0,0,0-1.09,2.688,6.538,6.538,0,0,0-.41,2.371c-.066-.086-.133-.172-.2-.255a7.437,7.437,0,0,0-1.953-1.655,7.24,7.24,0,0,0-1.183-.559c-.13-.048-.268-.1-.41-.141a.3.3,0,0,0-.036-.1,1.253,1.253,0,0,0,.26-.446,1.712,1.712,0,0,0-.14-1.181,3.457,3.457,0,0,0-1.619-1.625,6.723,6.723,0,0,0-1.105-.445l-.125-.038a5.158,5.158,0,0,0,1.528-.723,6.37,6.37,0,0,0,.8-.623,5.919,5.919,0,0,0,.7-.725,6.568,6.568,0,0,0,.939-1.793,9.092,9.092,0,0,0,.454-2.011,8.476,8.476,0,0,0,.065-1.045,1.793,1.793,0,0,0-.269-1.04.189.189,0,0,0-.323,0,1.6,1.6,0,0,0,.142,1.922c-.016.153-.034.306-.058.458a8.54,8.54,0,0,1-.487,1.807,10.475,10.475,0,0,1-.917,1.657A4.659,4.659,0,0,1,671,429.585a5.757,5.757,0,0,1-1.573.662,3.426,3.426,0,0,0-.676-.11,1.726,1.726,0,0,0-.382.026,2.556,2.556,0,0,0-1.922-.219,2.215,2.215,0,0,0-1.368,1.1,1.747,1.747,0,0,0-.261.134,3.406,3.406,0,0,0-.533.43,5.769,5.769,0,0,1-1.7.2,4.657,4.657,0,0,1-1.866-.485,10.47,10.47,0,0,1-1.616-.987,8.554,8.554,0,0,1-1.317-1.33c-.1-.12-.187-.244-.277-.369a1.6,1.6,0,0,0-.826-1.742.19.19,0,0,0-.281.16,1.793,1.793,0,0,0,.28,1.037,8.531,8.531,0,0,0,.573.877,9.1,9.1,0,0,0,1.389,1.523,6.567,6.567,0,0,0,1.7,1.095,5.888,5.888,0,0,0,.964.286,6.432,6.432,0,0,0,1,.146,5.154,5.154,0,0,0,1.686-.127l-.09.1a6.7,6.7,0,0,0-.74.933,3.456,3.456,0,0,0-.6,2.213,1.713,1.713,0,0,0,.461,1.1,1.254,1.254,0,0,0,.447.258.312.312,0,0,0,.016.1c-.1.108-.2.219-.286.325a7.261,7.261,0,0,0-.753,1.071,7.431,7.431,0,0,0-.879,2.4c-.019.107-.035.214-.049.322A6.538,6.538,0,0,0,660,438.854a21.076,21.076,0,0,0-2.276-1.8.132.132,0,0,0-.1-.088l-.041-.006a.162.162,0,0,0-.119-.018,12.854,12.854,0,0,0-2.451-.031c-.829.034-1.659.1-2.484.2a1.739,1.739,0,0,0-.659-.51.2.2,0,0,0-.235.031.205.205,0,0,0-.03.235,1.332,1.332,0,0,0,.564.621l.035.015a.252.252,0,0,0,.116.082,2.661,2.661,0,0,0,1.207-.011c.464-.052.931-.069,1.4-.087s.919-.033,1.379-.046c.234-.007.467-.016.7-.02a1.372,1.372,0,0,1,.253.012,1.008,1.008,0,0,1,.268.232.226.226,0,0,0,.123.083,3.528,3.528,0,0,0,.556.6c.183.154.386.284.566.441a4.836,4.836,0,0,1,.518.546,12.956,12.956,0,0,0,1,1.09q.262.249.54.482c.109.091.217.183.331.265-.3-.077-.6-.155-.9-.229a80.883,80.883,0,0,0-10.52-1.878,28.534,28.534,0,0,0-10.887.5,15.951,15.951,0,0,0-2.545.955,2.55,2.55,0,0,0-.962.673,1.681,1.681,0,0,0-.312,1.077,7.43,7.43,0,0,0,.574,2.491,11.662,11.662,0,0,0,1.252,2.348,16.68,16.68,0,0,0,1.679,2.067,4.326,4.326,0,0,0,2.089,1.336,6.9,6.9,0,0,0,1.934.156,2.554,2.554,0,0,0-.567.745,2,2,0,0,0,.011,1.727c.539,1.195,1.935,1.7,3.059,2.177a20.882,20.882,0,0,0,7.746,1.787,14.307,14.307,0,0,0,4.08-.512,7.788,7.788,0,0,0,3.4-1.752c1.509-1.478,2.047-3.611,3.088-5.391A7.252,7.252,0,0,1,665.695,447c.117-.076.236-.149.355-.221a8.948,8.948,0,0,0-.95,2.233c-.342,1.095-.646,2.206-.92,3.32a17.5,17.5,0,0,0-.559,6.809,10.929,10.929,0,0,0,2.915,5.809,18.042,18.042,0,0,0,5.546,3.83c1.043.489,2.116.917,3.2,1.317q.4.148.8.292a1.248,1.248,0,0,1,.616.345,3.281,3.281,0,0,1,.339.779l.355.909c.115.294.218.6.358.879a.362.362,0,0,0,.591-.157c-.02-.315-.078-.628-.124-.94s-.094-.644-.14-.967a3.278,3.278,0,0,1-.091-.845,1.25,1.25,0,0,1,.365-.6q.278-.324.554-.651c.742-.882,1.462-1.783,2.127-2.725a18.043,18.043,0,0,0,2.927-6.071,10.932,10.932,0,0,0-.338-6.491,17.5,17.5,0,0,0-3.852-5.643c-.788-.833-1.6-1.648-2.44-2.431a8.951,8.951,0,0,0-1.93-1.471c.139,0,.278.008.418.017a7.252,7.252,0,0,1,3.229.977c1.785,1.033,3.307,2.621,5.349,3.16a7.786,7.786,0,0,0,3.818-.155,14.3,14.3,0,0,0,3.8-1.573,20.881,20.881,0,0,0,5.85-5.382c.743-.967,1.706-2.1,1.583-3.4a2,2,0,0,0-.844-1.507,2.547,2.547,0,0,0-.861-.367,6.907,6.907,0,0,0,1.6-1.092,4.323,4.323,0,0,0,1.155-2.194,16.648,16.648,0,0,0,.438-2.627,11.645,11.645,0,0,0-.072-2.66A7.424,7.424,0,0,0,700.131,425.048Zm-9.273,2.785.018-.018c.1-.082.2-.164.3-.248.255-.217.506-.439.743-.676a4.11,4.11,0,0,0,.633-.75l0-.008A19.241,19.241,0,0,1,696.028,425c.276-.061.559-.115.842-.166-.033.018-.066.034-.1.054a3.837,3.837,0,0,0-1.087,1.035c-.321.429-.592.895-.876,1.349q-.46.738-.94,1.463c-1.154,1.744-2.374,3.44-3.678,5.074a1.374,1.374,0,0,1-.658.387,3.258,3.258,0,0,1-.911.04,15.384,15.384,0,0,0-1.845,0,8.165,8.165,0,0,0-1.819.285c-.071.022-.14.051-.211.076.107-.07.215-.139.318-.214a15.165,15.165,0,0,0,3.221-3.463c.475-.652.93-1.32,1.381-1.989l.018-.007c.254-.229.483-.488.738-.718.137-.124.279-.243.42-.361Zm-1.724,12.8c-.7-.136-1.4-.258-2.107-.358a22.007,22.007,0,0,0-2.976-.246c.251-.078.5-.155.751-.236,1.388-.449,2.75-.968,4.114-1.485a11.294,11.294,0,0,1,2.037-.612,4.593,4.593,0,0,1,.957-.064l.033.019a1.222,1.222,0,0,1,.315.135,1.833,1.833,0,0,1,.259.185,1.541,1.541,0,0,1,.283.311,4.474,4.474,0,0,1-.19,1,3.4,3.4,0,0,1-.639,1.054,5.652,5.652,0,0,1-.725.7C690.543,440.893,689.837,440.769,689.134,440.632Zm1.7.715c-.253.177-.515.34-.781.493a12.12,12.12,0,0,1-2.5,1.075c-.282.086-.568.161-.854.23-.069-.2-.3-.362-.445-.5q-.274-.269-.553-.533c-.38-.359-.761-.717-1.154-1.063a4.444,4.444,0,0,0-.954-.733h.033a22.712,22.712,0,0,1,3.825.351c.628.1,1.254.218,1.877.342C689.828,441.105,690.328,441.228,690.829,441.347Zm-.034-3.9a11.757,11.757,0,0,0-2.07.65c-.689.271-1.376.543-2.071.8s-1.417.508-2.129.75q-.542.184-1.087.36l-.147.046c-.061,0-.121,0-.181.009a8.265,8.265,0,0,0-1.9.4c-.643.2-1.282.422-1.92.64-.477.163-.953.329-1.429.5-.948.287-1.893.592-2.847.857-.664.184-1.331.354-2,.522a51.16,51.16,0,0,1,11.869-5.044,17.969,17.969,0,0,0,2.491-.784q.624-.154,1.252-.29a7.763,7.763,0,0,1,1.673-.2,5.824,5.824,0,0,1,2.665.681l-.007.019-.005.052h0v.013A5.111,5.111,0,0,0,690.8,437.444Zm-5.232-.253c-.569.155-1.137.313-1.7.483a52.159,52.159,0,0,0-6.727,2.555,51.618,51.618,0,0,0-4.862,2.568c.5-.4.985-.813,1.487-1.2q1.15-.9,2.343-1.735c1.429-1.011,2.886-1.967,4.392-2.859q1.129-.668,2.286-1.285l.6-.319.035.013a1.685,1.685,0,0,0,.456-.162c.158-.065.312-.143.469-.211l0,0c.224-.072.45-.137.678-.191a12.116,12.116,0,0,1,1.635-.274,11.648,11.648,0,0,1,1.6-.06,2.071,2.071,0,0,1,.892.21.2.2,0,0,0,.146.1h.014l.039.025a6.462,6.462,0,0,1-2.116,1.78A10.18,10.18,0,0,1,685.563,437.191Zm-8.883.749a.219.219,0,0,0,.091-.09q.893-.88,1.812-1.734a77.835,77.835,0,0,1,8-6.527,38.738,38.738,0,0,1,3.909-2.461c-.147.286-.294.573-.46.85-.233.388-.487.763-.742,1.137-.508.745-1.011,1.5-1.568,2.206a14.027,14.027,0,0,1-3.482,3.292c-.743.468-1.534.854-2.3,1.275s-1.528.846-2.279,1.293c-1.48.882-2.941,1.81-4.347,2.806q-.988.7-1.949,1.435c.512-.566,1.027-1.129,1.553-1.683Q675.785,438.825,676.68,437.94Zm-3.447-2.021a8.172,8.172,0,0,1,.926.28,11.927,11.927,0,0,0-1.475-.133,12.985,12.985,0,0,0-2.915.266c-.057-.119-.124-.236-.19-.348-.023-.072-.048-.142-.071-.214.042,0,.084-.006.127-.01A10.488,10.488,0,0,1,673.233,435.919Zm-4.176-4.752c.07-.137.294-.117.418-.1a3.731,3.731,0,0,1,.6.144,4.486,4.486,0,0,1,1.3.543,1.424,1.424,0,0,1,.607.809.365.365,0,0,1-.1.059,1.309,1.309,0,0,1-.714-.012,5.109,5.109,0,0,1-1.41-.566,2.111,2.111,0,0,1-.543-.408C669.12,431.526,668.982,431.316,669.057,431.166Zm-5.718,2.709a4.486,4.486,0,0,1,.864-1.116,3.746,3.746,0,0,1,.447-.42c.1-.074.286-.2.414-.118s.123.344.094.482a2.107,2.107,0,0,1-.27.623,5.114,5.114,0,0,1-.946,1.19,1.308,1.308,0,0,1-.615.363.36.36,0,0,1-.117,0A1.425,1.425,0,0,1,663.34,433.875Zm.446,4.542a10.493,10.493,0,0,1,3.048-1.918q.059-.025.116-.054c.029.132.054.265.08.4q-.008.107-.005.212a13.009,13.009,0,0,0-2.688,1.218,12,12,0,0,0-1.217.845A8.185,8.185,0,0,1,663.785,438.417Zm-1.474,1.87c.326-.23.625-.508.946-.739a15.21,15.21,0,0,1,1.324-.854,13.424,13.424,0,0,1,2.6-1.14,3.123,3.123,0,0,0,.444.4q.343.291.686.581c.187.158.427.453.691.449.306,0,.4-.316.467-.557l.26-.915a2.963,2.963,0,0,0,.159-.673,13.435,13.435,0,0,1,2.786-.288,15.368,15.368,0,0,1,1.573.088c.394.043.791.136,1.188.175a2.325,2.325,0,0,1,.819.8c-.846.836-1.676,1.689-2.478,2.566-.607.663-1.207,1.336-1.784,2.025a24.566,24.566,0,0,0-1.6,2.077,24.593,24.593,0,0,0-2.421-1.013c-.843-.314-1.7-.6-2.552-.879-1.131-.366-2.274-.7-3.423-1.006A2.323,2.323,0,0,1,662.311,440.287Zm-10,10.5c.481-.416.967-.827,1.462-1.225a22.721,22.721,0,0,1,3.151-2.2l.029-.015a4.456,4.456,0,0,0-.467,1.109c-.172.494-.325.994-.478,1.495q-.112.367-.218.737a1.6,1.6,0,0,0-.137.659c-.284.082-.568.158-.856.223a12.147,12.147,0,0,1-2.7.3c-.307,0-.616-.014-.923-.043C651.549,451.483,651.923,451.129,652.314,450.791Zm-1.66.975a5.629,5.629,0,0,1-.974-.246,3.4,3.4,0,0,1-1.076-.6,4.479,4.479,0,0,1-.659-.774,1.558,1.558,0,0,1,.092-.411,1.815,1.815,0,0,1,.134-.289,1.209,1.209,0,0,1,.207-.273l.02-.032a4.57,4.57,0,0,1,.863-.417,11.28,11.28,0,0,1,2.073-.475c1.441-.225,2.882-.447,4.31-.743.257-.053.513-.11.77-.166a22.033,22.033,0,0,0-2.465,1.684c-.564.435-1.114.888-1.655,1.352S651.2,451.3,650.654,451.766Zm5.156-4.529c-.739.142-1.479.279-2.221.4s-1.463.224-2.2.329a11.741,11.741,0,0,0-2.12.458,5.118,5.118,0,0,0-1.883,1.043l0,0,0-.009h0l-.03-.043-.016-.013a5.829,5.829,0,0,1,1.98-1.91,7.779,7.779,0,0,1,1.553-.655q.613-.193,1.232-.367a17.9,17.9,0,0,0,2.552-.55,51.191,51.191,0,0,1,7.013-1.218,51.713,51.713,0,0,1,5.8-.264c-.664.184-1.328.366-2,.534-.96.241-1.932.444-2.9.663-.5.091-.992.181-1.487.275-.662.126-1.326.251-1.986.393a8.267,8.267,0,0,0-1.853.594c-.054.026-.107.055-.161.082l-.151.033Q656.372,447.129,655.81,447.237Zm6.715-3.144a52.183,52.183,0,0,0-7.111,1.1c-.575.131-1.146.275-1.717.421a10.179,10.179,0,0,1-1.732.334,6.459,6.459,0,0,1-2.72-.5l.022-.04.012-.007a.2.2,0,0,0,.077-.16,2.072,2.072,0,0,1,.672-.624,11.669,11.669,0,0,1,1.418-.738A12.126,12.126,0,0,1,653,443.31c.226-.066.454-.122.684-.169h.005c.17-.018.342-.027.512-.048a1.684,1.684,0,0,0,.477-.085l.024-.029.68-.02q1.311-.036,2.622-.013c1.75.03,3.49.141,5.231.314.967.1,1.933.21,2.894.35.63.092,1.258.21,1.888.312A51.612,51.612,0,0,0,662.524,444.093Zm-13.477-4.576a77.9,77.9,0,0,1,10.185,1.717q1.22.287,2.432.612a.219.219,0,0,0,.124.033q1.215.327,2.42.691c.731.221,1.457.456,2.182.7q-1.2-.163-2.4-.284c-1.715-.17-3.443-.255-5.166-.29-.873-.017-1.747-.012-2.62,0s-1.756.07-2.633.031a14.027,14.027,0,0,1-4.654-1.14c-.835-.341-1.644-.746-2.454-1.142-.406-.2-.813-.4-1.207-.621-.281-.159-.55-.336-.819-.512A38.719,38.719,0,0,1,649.047,439.517Zm-10.475.675a19.255,19.255,0,0,1,3.583-.731l.006.006a4.122,4.122,0,0,0,.922.339c.323.089.651.158.98.22.126.024.253.046.38.069l.025.007h.016c.182.033.363.066.544.106.335.074.662.186,1,.259l.019,0c.723.359,1.448.714,2.183,1.046a15.172,15.172,0,0,0,4.512,1.418c.127.014.255.02.382.029-.074.013-.148.022-.221.038a8.152,8.152,0,0,0-1.722.652,15.3,15.3,0,0,0-1.6.911,3.252,3.252,0,0,1-.812.416,1.371,1.371,0,0,1-.763-.011c-1.942-.776-3.84-1.647-5.706-2.593q-.775-.393-1.54-.807c-.471-.255-.937-.525-1.428-.74a3.838,3.838,0,0,0-1.457-.362c-.037,0-.074,0-.112,0C638.029,440.367,638.3,440.276,638.572,440.191Zm-1.862,5.676a9.448,9.448,0,0,1-1.073-2.824,3.088,3.088,0,0,1-.077-1.109,1.01,1.01,0,0,1,.44-.664,5.507,5.507,0,0,1,1.217-.375,2.954,2.954,0,0,1,1.557.191,10.06,10.06,0,0,1,1.379.708c.5.288,1.011.567,1.522.839,1.269.677,2.57,1.3,3.888,1.878a9.934,9.934,0,0,0-2.8-.138,18.01,18.01,0,0,0-3.9.961c-.361.129-.719.27-1.075.415l-.221.045-.361.076c-.119,0-.238,0-.357,0Zm1.156,1.724a13.943,13.943,0,0,1-.844-1.2c.256-.132.515-.254.777-.371.087-.02.174-.039.26-.06a.681.681,0,0,0,.389-.173l.014-.044a18.616,18.616,0,0,1,2.127-.7,17.584,17.584,0,0,1,2.158-.453,17.98,17.98,0,0,0-2.538,1.748c-.215.174-.428.352-.636.535a3.967,3.967,0,0,0-.552.539,2.526,2.526,0,0,0-.46,1.022C638.32,448.158,638.088,447.873,637.866,447.591Zm3.961,2.539a3.753,3.753,0,0,1-2.253-.711c-.111-.087-.217-.182-.322-.279v-.016a3.645,3.645,0,0,1-.132-.791c-.005-.113-.007-.227-.006-.341l.014-.033a3.527,3.527,0,0,1,.239-.494,1.659,1.659,0,0,1,.159-.247c.059-.065.137-.108.19-.179l-.01-.044c.23-.219.482-.418.727-.613a29.444,29.444,0,0,1,2.647-1.833,7.342,7.342,0,0,1,1.391-.015c.559.052,1.114.145,1.669.229.626.269,1.254.531,1.886.78a12.873,12.873,0,0,0,2.824.894,9.16,9.16,0,0,0-1.638.6,6.058,6.058,0,0,0-1.287.883,5.936,5.936,0,0,0-.911,1.028.23.23,0,0,0-.157.021c-.178.09-.358.173-.539.254a.864.864,0,0,0-.27.113A9.953,9.953,0,0,1,641.827,450.13Zm1.481,3.727a2.362,2.362,0,0,1-1.006-1.367,1.7,1.7,0,0,1,.485-1.48c.114-.134.234-.263.355-.391l.093-.008a9.866,9.866,0,0,0,2.635-.636,9.167,9.167,0,0,0,.836-.384.994.994,0,0,1,.194.077,1.042,1.042,0,0,1,.2.151c.092.217.187.433.276.652a.757.757,0,0,1,.041.689,1.075,1.075,0,0,1-.293.261c-.1.07-.2.139-.3.208a11.546,11.546,0,0,0-1.113.574,10.441,10.441,0,0,0-2.269,1.741C643.4,453.914,643.353,453.888,643.308,453.857Zm5.821,2.239a22.647,22.647,0,0,1-2.386-.7q-.887-.312-1.751-.685c-.4-.175-.816-.351-1.205-.564a11.933,11.933,0,0,1,2.126-1.607,11.583,11.583,0,0,1,1.32-.655c.392-.164.793-.306,1.185-.47a3.848,3.848,0,0,0,1.025.576,7.245,7.245,0,0,0,2.348.406c.114,0,.229,0,.343,0,.021.041.044.083.062.126a.327.327,0,0,1-.031.1,1.375,1.375,0,0,1-.249.29c-.069.07-.136.142-.2.213-.2.141-.4.288-.591.444a8.18,8.18,0,0,0-1.186,1.183,7.013,7.013,0,0,0-.479.668A1.79,1.79,0,0,0,649.129,456.1Zm6.953-.758-.04.293a1.446,1.446,0,0,1-.347.563.9.9,0,0,1-.283.178c-.337.057-.675.106-1.014.137a16.378,16.378,0,0,1-4.846-.319c.04-.063.07-.134.106-.206.058-.114.119-.226.184-.336a6.227,6.227,0,0,1,.462-.68,7.5,7.5,0,0,1,1.115-1.138,10.815,10.815,0,0,1,1.464-1.008c.267-.156.541-.3.815-.445l.2-.1c.192-.027.382-.057.572-.092a15.024,15.024,0,0,0,2.3-.637c.023.165.038.332.044.5a2.547,2.547,0,0,0-.195.525,7.176,7.176,0,0,1-.357,1.39.116.116,0,0,0,.018.133c-.019.088-.041.176-.056.264C656.172,454.682,656.127,455.01,656.082,455.338Zm7.49-7.132a31.041,31.041,0,0,0-2.389,4.479.1.1,0,0,0-.071.047,8.624,8.624,0,0,1-.86,1.2,5.361,5.361,0,0,1-1.1.928,6.028,6.028,0,0,1-1.314.626,3,3,0,0,1-.761.189.617.617,0,0,1-.508-.206c.02-.169.04-.337.06-.506a15.361,15.361,0,0,1,.489-2.089,5.819,5.819,0,0,1,.85-1.325,8.57,8.57,0,0,1,1.438-1.11c1.024-.665,2.076-1.3,3.135-1.905.466-.268.938-.524,1.413-.775C663.819,447.906,663.692,448.052,663.571,448.207Zm.993-1.816c-1.6,1-3.08,2.178-4.712,3.127a19.973,19.973,0,0,1-2.97,1.427l-.02-.024a1.173,1.173,0,0,1-.439-.772,2.688,2.688,0,0,1,.178-1.024c.152-.538.344-1.07.549-1.594a1.3,1.3,0,0,1,.109-.147,1.846,1.846,0,0,1,.477-.375l.022-.011c.1-.036.194-.072.293-.1a.03.03,0,0,0,.009-.054l.01-.005a6.3,6.3,0,0,1,.682-.217c.65-.161,1.315-.265,1.973-.386,1.321-.242,2.635-.521,3.955-.773l2.207-.421.8-.153c-.188.066-.377.129-.562.2A15.428,15.428,0,0,0,664.564,446.391Zm18.559,14.935c-.108.323-.232.639-.363.953-.073.084-.137.18-.2.262-.134.171-.255.351-.378.529-.1.144-.206.283-.308.425a.2.2,0,0,0-.338,0l-.02.031a.17.17,0,0,0-.215.114c-.035.1-.064.2-.1.3a.179.179,0,0,0-.311-.005c0,.01-.01.02-.016.03a.187.187,0,0,0-.217.123c-.1.278-.2.554-.3.832l-.02-.025c.012-.073.022-.146.035-.219.043-.244-.286-.361-.388-.177a.235.235,0,0,0-.414.056l-.088.371a.23.23,0,0,0-.457.03c0,.029-.005.058-.008.087a.229.229,0,0,0-.415.126l0,.038a.23.23,0,0,0-.379.165c0,.065,0,.13,0,.2a.225.225,0,0,0-.359.177c0,.071-.006.143-.01.214q-.024-.165-.047-.33c-.036-.263-.457-.2-.455.057v.041a.231.231,0,0,0-.372-.043l-.044,0a.2.2,0,0,0-.1.065.218.218,0,0,0-.3.028.178.178,0,0,0-.152.172.231.231,0,0,0-.277-.031.246.246,0,0,0-.164.145.377.377,0,0,0-.015.08l-.013-.035a.18.18,0,0,0-.237-.105.218.218,0,0,0-.275.124.2.2,0,0,0-.118-.007l-.039.02a.232.232,0,0,0-.3.222l-.02-.036c-.123-.221-.522-.071-.423.175l.123.31-.115-.181a.225.225,0,0,0-.4.023c-.034-.055-.064-.113-.1-.168a.23.23,0,0,0-.41.044l-.021-.032a.229.229,0,0,0-.422.1l-.05-.072a.23.23,0,0,0-.412.2l-.26-.278a.234.234,0,0,0-.388.156c-.18-.109-.408.155-.25.346.047.057.092.116.139.173l0,.031c-.225-.191-.451-.381-.675-.572-.18-.153-.435.092-.263.264.1.1.19.2.284.3l-.017,0-.083-.056c-.069-.046-.138-.09-.208-.128q-.237-.231-.49-.448a.175.175,0,0,0-.246.247c.035.041.071.081.106.122l-.044.015-.027.021-.163-.136a.192.192,0,0,0-.11-.044.15.15,0,0,0-.179.062l-.1-.055c-.213-.124-.43-.244-.631-.386a.065.065,0,0,0-.1.032,14.392,14.392,0,0,1-1.238-.985q-.168-.15-.331-.307a.182.182,0,0,0,.172-.187c.119.149.242.3.37.438.143.159.361-.044.28-.216-.093-.2-.189-.4-.282-.593q.17.223.348.44c.123.15.343-.014.307-.177-.023-.1-.051-.2-.078-.3.077.115.152.232.231.346a.2.2,0,0,0,.357-.055h.018l.018.037a.241.241,0,0,0,.446-.118c0-.046,0-.092,0-.137l0,.008a.245.245,0,0,0,.446-.185c-.009-.066-.021-.132-.031-.2a.262.262,0,0,0,.166-.008.234.234,0,0,0,.145-.224c.1.2.206.4.311.6.134.253.5.075.447-.185-.019-.1-.042-.19-.064-.285a.27.27,0,0,0,.159-.081.249.249,0,0,0,.292-.309l-.009-.055.086.182a.265.265,0,0,0,.49-.13c-.006-.122-.021-.244-.032-.366.047.077.089.157.138.233a.258.258,0,0,0,.436.005c.018.027.035.054.053.081a.258.258,0,0,0,.477-.129.283.283,0,0,0,.289-.233c.025.041.047.084.072.125.125.2.5.14.484-.128,0-.054-.011-.107-.016-.16a.265.265,0,0,0,.272-.314l-.013-.06a.217.217,0,0,0,.113-.049.243.243,0,0,0,.278-.25.206.206,0,0,0,.037-.01.239.239,0,0,0,.078-.018c.028.056.051.115.081.169a.265.265,0,0,0,.478-.062l.012-.071a.227.227,0,0,0,.337-.091,1.046,1.046,0,0,0,.07-.239s.008-.007.012-.009a.239.239,0,0,0,.379.114.214.214,0,0,0,.123-.013l.018.058a.265.265,0,0,0,.391.138c.022.049.042.1.065.148.114.243.476.111.484-.128,0-.048,0-.1,0-.144a.283.283,0,0,0,.367.06.258.258,0,0,0,.479-.124c0-.032,0-.064.006-.1a.258.258,0,0,0,.377-.22c.005-.09,0-.181.005-.271.051.111.1.224.153.333a.265.265,0,0,0,.49-.13c-.005-.067-.01-.134-.016-.2l.02.052a.249.249,0,0,0,.406.124.27.27,0,0,0,.179-.008c.028.093.055.187.085.279.083.252.488.226.48-.06-.007-.226-.018-.451-.027-.677a.234.234,0,0,0,.237.123.261.261,0,0,0,.148-.075c.024.062.046.125.071.187a.245.245,0,0,0,.478-.06v-.009c.023.04.043.081.067.12a.241.241,0,0,0,.446-.118l0-.041.016-.008a.2.2,0,0,0,.337-.129c.012-.138.019-.277.029-.415.026.1.05.2.08.3.049.16.322.193.354,0s.059-.37.084-.555c.016.218.031.436.048.654.015.19.3.258.35.05.041-.187.076-.376.105-.564a.181.181,0,0,0,.242.077Q683.194,461.112,683.123,461.326Zm-1.632-8.169c.053.062.107.122.163.181a.122.122,0,0,0,.2-.117c-.012-.053-.027-.1-.041-.157l.042,0c.072.11.143.221.217.329a.126.126,0,0,0,.23-.1c-.018-.079-.039-.158-.06-.236l.42.693a.119.119,0,0,0,.173.042c.022.043.043.086.065.128.057.111.223.032.2-.081-.019-.078-.045-.154-.068-.231a9.865,9.865,0,0,1,.468,1.34,8.794,8.794,0,0,1,.19.917.139.139,0,0,0-.1.111c-.007.048-.011.1-.017.145a.145.145,0,0,0-.1-.039c-.007-.065-.012-.131-.019-.2-.022-.191-.311-.206-.307,0s.012.4.019.6c0-.039-.007-.078-.012-.116v-.012h0l-.005-.053c-.03-.228-.384-.165-.389.048-.006.283,0,.566.024.848a.222.222,0,0,0-.2-.155c-.058-.174-.348-.166-.333.04.008.109.016.218.024.327a.17.17,0,0,0-.168-.074l-.009-.066a.18.18,0,0,0-.043-.092.184.184,0,0,0-.359.051v.068l-.007.024,0,.035-.061.035a.221.221,0,0,0-.392.133c0,.041,0,.081,0,.121-.114-.144-.435-.071-.414.148,0,.027.005.054.009.081a.188.188,0,0,0-.081.168l0,.041a.255.255,0,0,0-.088.014c0-.036-.007-.072-.012-.107a.219.219,0,0,0-.211-.216.216.216,0,0,0-.213.2.241.241,0,0,0-.3.08.236.236,0,0,0-.406.165c0,.068.008.135.012.2a.187.187,0,0,0-.119.191v.014a.231.231,0,0,0-.17.076.264.264,0,0,0-.374-.191c-.015-.08-.025-.161-.042-.241a.186.186,0,0,0-.364.045q.011.328.044.653l-.012,0c-.027-.177-.055-.354-.091-.529a.182.182,0,0,0-.338-.031.194.194,0,0,0-.349.109c-.011.164-.014.328-.011.492a.251.251,0,0,0-.07.1l-.276-.685c-.081-.2-.432-.207-.415.052.006.1.012.2.018.3a.237.237,0,0,0-.138.148.264.264,0,0,0-.093-.03l-.026-.085a.218.218,0,0,0-.427.053q0,.234,0,.467c-.019-.092-.034-.186-.056-.277a.193.193,0,0,0-.29-.129.216.216,0,0,0-.107-.058l0-.02c-.022-.137-.172-.135-.249-.056-.033-.119-.064-.239-.1-.358a.174.174,0,0,0-.336.089c0,.01,0,.019,0,.029l-.012,0a.255.255,0,0,0-.148.294l.012.062a.27.27,0,0,0-.222.2.294.294,0,0,0-.079.026.271.271,0,0,0-.447.076c-.01-.03-.019-.061-.029-.092a.263.263,0,0,0-.445-.094.248.248,0,0,0-.2.165.192.192,0,0,0-.068.007.2.2,0,0,0-.178-.118c-.008-.023-.016-.046-.024-.069a.174.174,0,0,0-.336.089c.029.121.061.24.091.36-.106-.031-.237.041-.189.171l.006.019a.217.217,0,0,0-.064.1.192.192,0,0,0-.188.256c.026.091.059.179.088.269l-.232-.405a.218.218,0,0,0-.4.165l.019.087a.26.26,0,0,0-.066.072.239.239,0,0,0-.193-.06l-.131-.267c-.114-.233-.415-.055-.386.16l.1.732a.249.249,0,0,0-.113-.056c-.079-.143-.162-.285-.253-.422a.193.193,0,0,0-.357.078c-.125-.082-.334.023-.278.194s.119.338.182.506l-.011,0c-.088-.2-.183-.4-.285-.589a.186.186,0,0,0-.339.141c.025.078.056.153.083.231a.263.263,0,0,0-.23.351.231.231,0,0,0-.186.019l-.006-.013a.187.187,0,0,0-.2-.108c-.03-.061-.06-.121-.09-.182a.236.236,0,0,0-.435.057.241.241,0,0,0-.3.08.216.216,0,0,0-.282-.065.219.219,0,0,0-.077.292c.014.033.029.066.043.1a.26.26,0,0,0-.083.032l-.017-.037a.187.187,0,0,0-.154-.106l-.033-.075c-.09-.2-.405-.105-.433.077-.021-.035-.04-.07-.062-.1a.221.221,0,0,0-.406.079h-.07l-.019-.029-.017-.017-.034-.059a.184.184,0,0,0-.337.133.181.181,0,0,0,.008.1l.025.062a.171.171,0,0,0-.109.147l-.141-.3c-.089-.186-.344-.05-.309.13a.221.221,0,0,0-.095.233c-.121-.255-.254-.505-.4-.748-.109-.183-.449-.063-.362.15l.022.049h0l.006.01c.015.036.032.071.047.107-.092-.177-.184-.354-.279-.53s-.341-.022-.266.155c.026.06.054.12.08.18a.144.144,0,0,0-.066.082c-.029-.039-.057-.079-.086-.118a.138.138,0,0,0-.141-.048,8.824,8.824,0,0,1-.288-.891,9.9,9.9,0,0,1-.256-1.4c.017.078.033.157.055.234.032.112.215.1.21-.026,0-.048,0-.1-.007-.143a.119.119,0,0,0,.129-.122c.007-.27.016-.54.023-.809.021.078.041.157.064.235a.126.126,0,0,0,.247-.031c.011-.131.018-.263.026-.394l.035-.024c.014.052.027.1.043.157a.122.122,0,0,0,.234,0c.02-.079.036-.158.052-.238a.132.132,0,0,0,.248-.009c.021-.128.046-.254.073-.378a.446.446,0,0,0,.178-.2c.008.033.016.066.025.1a.137.137,0,0,0,.265-.07c-.012-.05-.025-.1-.037-.15l.034-.039a.536.536,0,0,0,.165.252.233.233,0,0,0,.362-.048l.006-.014.057.017a.227.227,0,0,0,.281-.207.346.346,0,0,0,.106-.026.2.2,0,0,0,.162.036c.009.029.016.059.026.088a.146.146,0,0,0,.28,0c.02-.093.037-.187.053-.28a.369.369,0,0,0,.192-.112c.014.09.024.181.039.27.033.2.307.164.361,0l.013-.045c.011.05.019.1.031.15a.185.185,0,0,0,.354,0,3.6,3.6,0,0,0,.167-.666v.007a.184.184,0,0,0,.334.045,1.381,1.381,0,0,0,.081-.237.964.964,0,0,0,.233.416.182.182,0,0,0,.269-.02.19.19,0,0,0,.324-.076,5.883,5.883,0,0,0,.073-.764c.033.118.068.236.1.355a.214.214,0,0,0,.419-.052c.008-.274.015-.548.024-.822.074.274.149.548.225.821a.22.22,0,0,0,.321.132.52.52,0,0,0,.217-.441l.051.162a.212.212,0,0,0,.406,0,1.455,1.455,0,0,0,.06-.3.217.217,0,0,0,.36-.027c.13.031.3-.042.277-.2l-.007-.057h0l0-.012c-.006-.055-.016-.109-.022-.163a.218.218,0,0,0,.183-.157.193.193,0,0,0,.154-.078.252.252,0,0,0,.151,0,.225.225,0,0,0,.269-.026.252.252,0,0,0,.431-.084.939.939,0,0,0,.062-.267.354.354,0,0,0,.119-.012c.006.019.011.039.018.057a.209.209,0,0,0,.284.124c.021.051.04.1.062.153l0,.011h0l.021.053a.207.207,0,0,0,.339.035.217.217,0,0,0,.327-.155,1.429,1.429,0,0,0,.2.231.212.212,0,0,0,.352-.2q-.018-.083-.035-.166a.519.519,0,0,0,.406.276.22.22,0,0,0,.213-.274c-.068-.276-.139-.55-.21-.825.143.234.284.469.427.7a.214.214,0,0,0,.389-.161c-.03-.119-.058-.239-.087-.358a5.832,5.832,0,0,0,.441.629c.1.122.284.036.319-.094a.182.182,0,0,0,.244-.115.966.966,0,0,0,0-.477,1.4,1.4,0,0,0,.188.166c.132.095.306-.062.268-.2l0-.007a3.6,3.6,0,0,0,.474.5.185.185,0,0,0,.307-.177c-.014-.049-.033-.1-.047-.145l.033.033c.127.114.381.006.313-.181-.031-.085-.067-.169-.1-.254a.371.371,0,0,0,.222,0c.06.073.122.146.185.217.1.114.271-.008.243-.14-.007-.03-.015-.06-.022-.089a.205.205,0,0,0,.123-.111.337.337,0,0,0,.105-.03.227.227,0,0,0,.346.041l.041-.043.012.01a.233.233,0,0,0,.338-.138.533.533,0,0,0,.019-.3l.048.017c.014.049.028.1.042.148a.137.137,0,0,0,.265-.07l-.028-.1a.446.446,0,0,0,.253.084c.085.094.169.192.251.293S681.521,453.271,681.491,453.157Zm-1.182-3.655,0-.011c.021.024.044.047.065.072Zm-4.2-2.774a.191.191,0,0,0,.294-.036l.1.117c.137.165.368-.029.306-.2.077.076.152.155.223.239.1.124.289.022.312-.109a10.283,10.283,0,0,1,.954.964c.313.344.631.684.941,1.03a.158.158,0,0,0,.013.2c.119.133.229.273.34.413a.161.161,0,0,0,.029.112l.025.036-.016-.014a.069.069,0,0,0-.106.021q-.335-.308-.684-.605a.129.129,0,0,0-.182.183c.193.227.384.457.572.691a.174.174,0,0,0-.076.039l-.384-.471c-.145-.168-.378.074-.241.242.1.114.188.235.28.355-.188-.221-.378-.441-.564-.664-.164-.2-.465.058-.345.267.033.057.063.115.1.173a4.22,4.22,0,0,1-.47.248c-.154-.066-.375.063-.312.257.081.251.156.5.229.757-.177-.242-.36-.48-.555-.707a.255.255,0,0,0-.424.244l.148.446a.254.254,0,0,0-.2.293l.015.065c-.046-.088-.093-.175-.137-.263-.122-.242-.493-.071-.429.178.028.11.056.221.084.331q-.2-.409-.4-.818c-.128-.264-.5-.068-.448.185.021.114.045.227.068.341a1.423,1.423,0,0,0-.164-.157.257.257,0,0,0-.426.245c.037.162.072.325.109.487a6.5,6.5,0,0,0-.63-.858.254.254,0,0,0-.43.164.263.263,0,0,0-.331.3l.091.5-.051-.16a.263.263,0,0,0-.48-.057.277.277,0,0,0-.117.006,3.791,3.791,0,0,1-.628.327.211.211,0,0,0-.214-.009c-.018-.07-.038-.14-.056-.21a.138.138,0,0,0-.267,0c-.029-.083-.055-.166-.085-.249a.09.09,0,0,0-.175.046c.021.086.046.172.068.258a.261.261,0,0,0-.416-.058.253.253,0,0,0-.455.07,6.488,6.488,0,0,0-.123,1.057c-.048-.159-.1-.318-.146-.477a.257.257,0,0,0-.492,0,1.41,1.41,0,0,0-.065.217c-.036-.11-.072-.22-.11-.33-.084-.244-.5-.233-.481.06s.039.605.058.908l-.091-.329c-.068-.248-.475-.214-.461.057,0,.1.007.2.011.3l-.019-.064a.254.254,0,0,0-.317-.156l-.091-.461a.255.255,0,0,0-.49,0c-.057.295-.1.592-.133.89-.062-.256-.122-.513-.175-.772a.224.224,0,0,0-.4-.069,4.17,4.17,0,0,1-.531.017c0-.066,0-.132,0-.2,0-.241-.386-.313-.432-.061-.052.285-.108.571-.162.856.021-.149.039-.3.068-.447.036-.214-.287-.309-.33-.091-.033.2-.067.4-.1.6a.177.177,0,0,0-.085,0c.047-.3.1-.59.155-.883a.129.129,0,0,0-.249-.069q-.156.431-.3.864a.069.069,0,0,0-.1.034l-.007.02,0-.044a.161.161,0,0,0-.03-.111c.028-.176.054-.352.091-.527a.164.164,0,0,0-.316-.088c-.124.394-.236.791-.342,1.188a9.261,9.261,0,0,1,.6-1.946.117.117,0,0,0-.13-.163c.069-.268.145-.533.218-.8a.11.11,0,0,0,.085-.044,2.671,2.671,0,0,0,.285-.645c.016-.042.034-.083.051-.125a.142.142,0,0,0,.046-.056c.028-.058.05-.118.075-.178.083.105.3.1.328-.057.02-.108.046-.213.075-.318.033.183.33.237.367.026.009-.05.017-.1.026-.15a.191.191,0,0,0,.273-.114,1.993,1.993,0,0,0,.047-.4l.04.012c0,.059,0,.118,0,.177a.171.171,0,0,0,.341,0c0-.028,0-.056,0-.084a.2.2,0,0,0,.387.052l.254-.9c-.018.16-.036.319-.054.479-.026.237.36.289.413.059s.1-.456.136-.685a.2.2,0,0,0,.093.119c0,.032.007.063.009.1a.212.212,0,0,0,.424,0l.007-.257c.027.113.049.226.08.338a.219.219,0,0,0,.429-.053v-.042a.231.231,0,0,0,.339-.076c.121.126.407.062.384-.147-.009-.087-.019-.174-.029-.262a.223.223,0,0,0,.166,0c.073.214.463.157.444-.091q-.007-.088-.014-.176l.061-.023a.172.172,0,0,0,.062.033.7.7,0,0,0,.276.321.225.225,0,0,0,.324-.132.85.85,0,0,0,.047-.274.157.157,0,0,0,.127-.185.2.2,0,0,0,.323-.07l.064-.01.076.16c.106.224.473.082.431-.141a.221.221,0,0,0,.142-.085l.1.242c.083.193.364.107.407-.063a.23.23,0,0,0,.332-.1l.021.036a.219.219,0,0,0,.4-.166c-.028-.112-.065-.222-.1-.333l.133.22a.212.212,0,0,0,.366-.213c-.014-.029-.026-.058-.039-.087a.194.194,0,0,0,.022-.15c.148.18.3.357.457.528s.47-.062.33-.255l-.284-.39.665.655a.2.2,0,0,0,.31-.237c.015.023.029.049.045.072a.171.171,0,0,0,.295-.171c-.029-.052-.057-.1-.085-.156l.029-.03A1.933,1.933,0,0,0,676.114,446.728Zm-2.484-3.36c-.2.029-.392.068-.588.1l.768-.261,2.127-.725c1.272-.433,2.551-.84,3.82-1.282.632-.221,1.261-.459,1.906-.64a6.3,6.3,0,0,1,.7-.149h.011a.03.03,0,0,0,.035.043c.1-.025.2-.041.3-.058h.025a1.845,1.845,0,0,1,.6.091,1.327,1.327,0,0,1,.168.073c.436.354.866.721,1.265,1.114a2.686,2.686,0,0,1,.661.8,1.171,1.171,0,0,1,0,.888l-.006.031a19.969,19.969,0,0,1-3.287.228c-1.889-.018-3.758-.313-5.643-.389A15.4,15.4,0,0,0,673.63,443.368Zm13.969,4.241a3.014,3.014,0,0,1-.755.212,6.025,6.025,0,0,1-1.451.105,5.366,5.366,0,0,1-1.415-.263,8.635,8.635,0,0,1-1.343-.622.1.1,0,0,0-.085-.006,31.1,31.1,0,0,0-4.291-2.713c-.181-.075-.365-.139-.55-.2.536-.017,1.074-.028,1.612-.025,1.222.007,2.447.034,3.667.107a8.54,8.54,0,0,1,1.8.254,5.79,5.79,0,0,1,1.393.732,15.31,15.31,0,0,1,1.458,1.574l.3.41A.615.615,0,0,1,687.6,447.609Zm2.737-.6c-.31.141-.628.265-.949.382a.906.906,0,0,1-.334-.015,1.442,1.442,0,0,1-.58-.318l-.18-.235c-.2-.263-.4-.526-.612-.782-.057-.07-.119-.135-.179-.2a.117.117,0,0,0-.05-.125,7.186,7.186,0,0,1-1-1.031,2.524,2.524,0,0,0-.429-.36c-.076-.149-.146-.3-.208-.455a14.969,14.969,0,0,0,2.319-.585c.182-.063.363-.132.543-.2l.221-.008c.31-.01.619-.02.929-.016a10.835,10.835,0,0,1,1.77.152,7.518,7.518,0,0,1,1.532.438,6.218,6.218,0,0,1,.738.362c.111.064.22.131.326.2.068.045.129.091.195.126A16.383,16.383,0,0,1,690.336,447.006Zm7.288-6.211q-.566.75-1.184,1.461a22.609,22.609,0,0,1-1.729,1.787,1.782,1.782,0,0,0-.619-.422,6.917,6.917,0,0,0-.747-.344,8.2,8.2,0,0,0-1.615-.442c-.243-.042-.488-.071-.733-.094-.094-.029-.187-.059-.282-.085a1.375,1.375,0,0,1-.359-.129.33.33,0,0,1-.076-.071c-.005-.046-.007-.093-.008-.14.1-.056.2-.111.3-.17a7.237,7.237,0,0,0,1.84-1.514,3.844,3.844,0,0,0,.607-1.008c.422-.05.84-.125,1.262-.177a11.666,11.666,0,0,1,1.472-.084,11.94,11.94,0,0,1,2.642.346C698.161,440.086,697.891,440.443,697.625,440.794Zm1.239-3.262a2.361,2.361,0,0,1-.2,1.685c-.023.049-.052.1-.077.144a10.439,10.439,0,0,0-2.833-.392,11.529,11.529,0,0,0-1.251.051c-.121-.011-.242-.021-.362-.033a1.083,1.083,0,0,1-.384-.082c-.223-.112-.275-.4-.3-.619s-.056-.468-.083-.7a1.033,1.033,0,0,1,.1-.232.979.979,0,0,1,.13-.163,9.139,9.139,0,0,0,.917-.08,9.857,9.857,0,0,0,2.6-.749l.085-.038c.168.051.337.1.5.164A1.694,1.694,0,0,1,698.864,437.532Zm.854-4.018a3.753,3.753,0,0,1-1.607,1.732,9.955,9.955,0,0,1-4.06,1.4.856.856,0,0,0-.291.035c-.2.02-.4.036-.594.046a.234.234,0,0,0-.147.059,5.922,5.922,0,0,0-1.3-.443,6.067,6.067,0,0,0-1.555-.132,9.152,9.152,0,0,0-1.72.29,12.89,12.89,0,0,0,2.013-2.173q.639-.795,1.254-1.611c.441-.348.877-.7,1.337-1.024a7.311,7.311,0,0,1,1.216-.675,29.4,29.4,0,0,1,3.207.285c.309.049.627.1.935.173l.013.042c.081.035.17.034.253.062a1.666,1.666,0,0,1,.261.135,3.532,3.532,0,0,1,.452.312l.028.021c.057.1.112.2.163.3a3.672,3.672,0,0,1,.276.753l.007.015C699.816,433.248,699.771,433.383,699.718,433.514Zm.581-2.433c-.053.355-.114.717-.189,1.076a2.524,2.524,0,0,0-.9-.661,3.96,3.96,0,0,0-.747-.2c-.271-.056-.544-.1-.817-.15a17.993,17.993,0,0,0-3.07-.265,17.53,17.53,0,0,1,2.1-.673,18.619,18.619,0,0,1,2.2-.441l.035.031a.682.682,0,0,0,.424-.043c.085-.024.17-.051.255-.077.286-.027.572-.05.859-.061A13.95,13.95,0,0,1,700.3,431.081Zm.153-2.07-.121.068c-.1.059-.206.12-.308.181l-.352.112-.215.07c-.381.049-.762.1-1.14.17a18.007,18.007,0,0,0-3.863,1.092,9.918,9.918,0,0,0-2.367,1.5c.858-1.156,1.683-2.339,2.451-3.555.309-.49.614-.983.908-1.482a10.136,10.136,0,0,1,.849-1.3,2.953,2.953,0,0,1,1.259-.936,5.5,5.5,0,0,1,1.243-.275,1.011,1.011,0,0,1,.711.359,3.093,3.093,0,0,1,.481,1A9.451,9.451,0,0,1,700.452,429.011Z" transform="translate(-747.683 -157.314) rotate(-20)" fill="#1d1d1b"/></g></svg>