<?xml version="1.0" encoding="UTF-8"?>
<svg id="Layer_1" data-name="Layer 1" xmlns="http://www.w3.org/2000/svg" viewBox="0 0 262.46 72.01">
  <defs>
    <style>
      .cls-1 {
        fill: #1d1d1b;
      }
    </style>
  </defs>
  <path class="cls-1" d="m5.54,7.61h12.35l8.81,41.31h.16L36.78,7.61h11.72l-15.03,56.81h-13.93L5.54,7.61Z"/>
  <path class="cls-1" d="m65.35,7.61v8.73h-11.1V7.61h11.1Zm0,56.81h-11.1V24.68h11.1v39.74Z"/>
  <path class="cls-1" d="m70.7,24.68h4.49v-6.29l11.1-4.96v11.25h5.74v6.85h-5.74v21.25c0,2.99-.08,4.96,3.54,4.96.71,0,1.42,0,1.97-.16v6.85c-1.5.16-3.07.39-5.74.39-9.6,0-10.86-6.37-10.86-8.81v-24.47h-4.49v-6.85Z"/>
  <path class="cls-1" d="m127.2,57.02c0,2.44.31,4.96.55,7.4h-10.31l-.47-5.27h-.16c-2.36,4.09-5.59,6.06-10.39,6.06-7.71,0-10.54-5.74-10.54-12.67,0-13.14,10.15-13.69,20.46-13.54v-3.07c0-3.38-.47-5.82-4.49-5.82s-4.17,2.91-4.17,6.06h-10.86c0-4.8,1.5-7.87,4.09-9.68,2.52-1.89,6.14-2.6,10.39-2.6,14.08,0,15.9,6.06,15.9,13.3v19.83Zm-20.46-4.96c0,2.83.47,6.29,4.09,6.29,6.53,0,5.51-8.81,5.51-13.14-5.51.24-9.6-.24-9.6,6.85Z"/>
  <path class="cls-1" d="m137.11,64.42V7.61h21.09c9.05,0,16.52,2.6,16.52,14.71,0,6.53-3.23,11.25-9.68,12.51v.16c8.42,1.18,10.62,6.61,10.62,14.4,0,14.4-12.51,15.03-17.55,15.03h-21.01Zm11.88-33.6h7.95c2.6,0,6.22-1.73,6.22-7.24,0-4.17-2.83-7.24-6.85-7.24h-7.32v14.48Zm0,24.87h6.61c2.52,0,8.18-.08,8.18-8.03,0-5.04-1.89-8.11-7.87-8.11h-6.92v16.13Z"/>
  <path class="cls-1" d="m194.71,46.32c0,4.72.16,11.8,5.04,11.8,3.93,0,4.72-3.78,4.72-7.08h11.25c-.16,4.33-1.57,7.87-4.25,10.31-2.6,2.44-6.53,3.86-11.72,3.86-14.32,0-16.21-8.73-16.21-21.17,0-10.86,1.57-20.14,16.21-20.14s16.6,9.68,16.21,22.43h-21.25Zm10.15-6.22c0-3.86.16-9.36-5.11-9.36s-5.04,5.98-5.04,9.36h10.15Z"/>
  <path class="cls-1" d="m234.06,46.32c0,4.72.16,11.8,5.04,11.8,3.93,0,4.72-3.78,4.72-7.08h11.25c-.16,4.33-1.57,7.87-4.25,10.31-2.6,2.44-6.53,3.86-11.72,3.86-14.32,0-16.21-8.73-16.21-21.17,0-10.86,1.57-20.14,16.21-20.14s16.6,9.68,16.21,22.43h-21.25Zm10.15-6.22c0-3.86.16-9.36-5.11-9.36s-5.04,5.98-5.04,9.36h10.15Z"/>
</svg>